<svg xmlns="http://www.w3.org/2000/svg" xmlns:xlink="http://www.w3.org/1999/xlink" width="500" zoomAndPan="magnify" viewBox="0 0 375 374.999991" height="500" preserveAspectRatio="xMidYMid meet" version="1.0"><defs><g/><clipPath id="6e3d5301f4"><path d="M 100 110 L 325.203125 110 L 325.203125 141 L 100 141 Z M 100 110 " clip-rule="nonzero"/></clipPath><clipPath id="e4fe7273bb"><path d="M 187.5 136 L 337.5 136 L 337.5 206.257812 L 187.5 206.257812 Z M 187.5 136 " clip-rule="nonzero"/></clipPath><clipPath id="41d1e8e57e"><path d="M 53.234375 136 L 203.234375 136 L 203.234375 206.445312 L 53.234375 206.445312 Z M 53.234375 136 " clip-rule="nonzero"/></clipPath><clipPath id="0044160a39"><path d="M 104.625 175 L 164 175 L 164 177.257812 L 104.625 177.257812 Z M 104.625 175 " clip-rule="nonzero"/></clipPath><clipPath id="e5ad275c3b"><path d="M 111 165.257812 L 171 165.257812 L 171 167 L 111 167 Z M 111 165.257812 " clip-rule="nonzero"/></clipPath><clipPath id="90ba4cc46c"><path d="M 272 175 L 278 175 L 278 177.257812 L 272 177.257812 Z M 272 175 " clip-rule="nonzero"/></clipPath><clipPath id="5df91b6db9"><path d="M 279 165.257812 L 284.625 165.257812 L 284.625 167 L 279 167 Z M 279 165.257812 " clip-rule="nonzero"/></clipPath><clipPath id="7408393765"><path d="M 257 175 L 264 175 L 264 177.257812 L 257 177.257812 Z M 257 175 " clip-rule="nonzero"/></clipPath><clipPath id="5a0f59b96e"><path d="M 264 165.257812 L 271 165.257812 L 271 167 L 264 167 Z M 264 165.257812 " clip-rule="nonzero"/></clipPath><clipPath id="05a557a293"><path d="M 241 175 L 250 175 L 250 177.257812 L 241 177.257812 Z M 241 175 " clip-rule="nonzero"/></clipPath><clipPath id="1fee259146"><path d="M 248 165.257812 L 257 165.257812 L 257 167 L 248 167 Z M 248 165.257812 " clip-rule="nonzero"/></clipPath><clipPath id="ba40e42d06"><path d="M 225 175 L 236 175 L 236 177.257812 L 225 177.257812 Z M 225 175 " clip-rule="nonzero"/></clipPath><clipPath id="b59d8d3f0f"><path d="M 233 165.257812 L 243 165.257812 L 243 167 L 233 167 Z M 233 165.257812 " clip-rule="nonzero"/></clipPath><clipPath id="17fb22eff2"><path d="M 210 175 L 221 175 L 221 177.257812 L 210 177.257812 Z M 210 175 " clip-rule="nonzero"/></clipPath><clipPath id="3f6721b716"><path d="M 217 165.257812 L 229 165.257812 L 229 167 L 217 167 Z M 217 165.257812 " clip-rule="nonzero"/></clipPath><clipPath id="da58c84bcb"><path d="M 194 175 L 207 175 L 207 177.257812 L 194 177.257812 Z M 194 175 " clip-rule="nonzero"/></clipPath><clipPath id="5649cf0f21"><path d="M 201 165.257812 L 214 165.257812 L 214 167 L 201 167 Z M 201 165.257812 " clip-rule="nonzero"/></clipPath><clipPath id="6aea8a01cf"><path d="M 179 175 L 193 175 L 193 177.257812 L 179 177.257812 Z M 179 175 " clip-rule="nonzero"/></clipPath><clipPath id="d3c03c9a57"><path d="M 186 165.257812 L 200 165.257812 L 200 167 L 186 167 Z M 186 165.257812 " clip-rule="nonzero"/></clipPath><clipPath id="7af1512f28"><path d="M 163 175 L 179 175 L 179 177.257812 L 163 177.257812 Z M 163 175 " clip-rule="nonzero"/></clipPath><clipPath id="016f16a88a"><path d="M 170 165.257812 L 186 165.257812 L 186 167 L 170 167 Z M 170 165.257812 " clip-rule="nonzero"/></clipPath><clipPath id="92aee8685f"><path d="M 77.308594 158.023438 L 102.058594 158.023438 L 102.058594 184 L 77.308594 184 Z M 77.308594 158.023438 " clip-rule="nonzero"/></clipPath><clipPath id="9c47c6a93e"><path d="M 90 158.023438 L 93 158.023438 L 93 163 L 90 163 Z M 90 158.023438 " clip-rule="nonzero"/></clipPath><clipPath id="54996fc88c"><path d="M 88 158.023438 L 90 158.023438 L 90 159 L 88 159 Z M 88 158.023438 " clip-rule="nonzero"/></clipPath><clipPath id="d7c3f46534"><path d="M 287 157 L 312.332031 157 L 312.332031 183.878906 L 287 183.878906 Z M 287 157 " clip-rule="nonzero"/></clipPath><clipPath id="e7f8f96549"><path d="M 298 156.878906 L 300 156.878906 L 300 158 L 298 158 Z M 298 156.878906 " clip-rule="nonzero"/></clipPath><clipPath id="0e191f2922"><path d="M 303 183 L 304 183 L 304 183.878906 L 303 183.878906 Z M 303 183 " clip-rule="nonzero"/></clipPath></defs><rect x="-37.5" width="450" fill="#ffffff" y="-37.499999" height="449.999989" fill-opacity="1"/><rect x="-37.5" width="450" fill="#ffffff" y="-37.499999" height="449.999989" fill-opacity="1"/><path fill="#ff66c4" d="M 196.441406 62.585938 C 156.554688 62.398438 122.25 68.734375 117.300781 69.359375 C 109.382812 70.359375 106.78125 75.804688 106.78125 75.804688 L 91.449219 109.429688 C 94.15625 109.101562 97.652344 108.675781 101.796875 108.171875 C 102.730469 44.363281 263.726562 69.007812 269.121094 72.601562 C 246.308594 65.160156 220.371094 62.699219 196.441406 62.585938 Z M 196.441406 62.585938 " fill-opacity="1" fill-rule="nonzero"/><path fill="#ff66c4" d="M 160.671875 71.472656 C 160.671875 71.472656 202.449219 64.304688 268.542969 76.148438 C 267.921875 75.527344 281.328125 86.75 288.496094 109.820312 C 288.1875 109.511719 110.476562 94.234375 59.035156 134.453125 C 59.96875 133.203125 81.167969 111.066406 144.769531 105.457031 C 208.371094 99.84375 284.132812 114.5 275.09375 92.984375 C 266.050781 71.472656 216.789062 71.472656 160.671875 71.472656 Z M 160.671875 71.472656 " fill-opacity="1" fill-rule="nonzero"/><path fill="#ff66c4" d="M 92.394531 109.121094 L 87.015625 114.109375 C 87.015625 114.109375 83.429688 109.507812 71.191406 109.976562 C 58.953125 110.445312 65.65625 96.882812 72.90625 96.726562 C 80.15625 96.570312 87.171875 95.324219 86.625 99.066406 C 86.078125 102.808594 86 107.714844 84.910156 108.183594 C 83.820312 108.652344 84.988281 97.507812 75.945312 99.222656 C 66.90625 100.9375 68.699219 104.597656 70.957031 105.457031 C 73.21875 106.3125 76.492188 104.132812 79.222656 107.328125 C 81.949219 110.523438 89.976562 112.238281 92.394531 109.121094 Z M 92.394531 109.121094 " fill-opacity="1" fill-rule="nonzero"/><path fill="#ff66c4" d="M 287.941406 109.667969 L 293.320312 114.65625 C 293.320312 114.65625 296.902344 110.058594 309.140625 110.527344 C 321.378906 110.992188 314.675781 97.429688 307.425781 97.277344 C 300.175781 97.121094 293.160156 95.871094 293.707031 99.613281 C 294.253906 103.355469 294.332031 108.265625 295.421875 108.734375 C 296.515625 109.199219 295.34375 98.054688 304.386719 99.769531 C 313.429688 101.484375 311.636719 105.148438 309.375 106.003906 C 307.113281 106.863281 303.839844 104.679688 301.113281 107.875 C 298.382812 111.070312 290.355469 112.785156 287.941406 109.667969 Z M 287.941406 109.667969 " fill-opacity="1" fill-rule="nonzero"/><g clip-path="url(#6e3d5301f4)"><path fill="#ff66c4" d="M 200.195312 110.445312 C 169.910156 110.546875 136.78125 113.867188 100.226562 124.941406 L 100.285156 124.929688 C 156.507812 111.464844 221.476562 111.746094 268.125 115.121094 C 267.96875 115.128906 267.898438 115.128906 267.742188 115.132812 C 261.488281 115.453125 257.699219 116.375 249.382812 117.117188 C 241.0625 117.859375 232.703125 118.808594 226.265625 119.96875 C 223.050781 120.546875 220.316406 121.179688 218.292969 121.871094 C 217.28125 122.214844 216.445312 122.578125 215.804688 122.972656 C 215.164062 123.363281 214.695312 123.785156 214.503906 124.332031 C 214.304688 124.902344 214.558594 125.503906 215.03125 125.945312 C 274.160156 162.253906 314.484375 93.390625 324.210938 140.097656 C 324.667969 140.066406 325.121094 140.035156 325.554688 140.027344 C 323.566406 126.011719 316.347656 122.558594 313.515625 117.839844 C 312.636719 116.375 311.464844 115.683594 310.269531 115.574219 C 309.070312 115.46875 307.886719 115.898438 306.835938 116.472656 C 299.101562 122.273438 289.679688 125.898438 280.664062 127.605469 C 271.28125 129.296875 260.664062 129.984375 250.75 129.976562 C 203.066406 121.386719 259.195312 117.566406 283.121094 115.25 C 257.925781 113.457031 230.480469 110.339844 200.195312 110.445312 Z M 200.195312 110.445312 " fill-opacity="1" fill-rule="nonzero"/></g><g clip-path="url(#e4fe7273bb)"><path fill="#000000" d="M 187.585938 160.75 L 268.222656 155.78125 L 270.1875 155.660156 L 279.882812 155.0625 L 270.726562 154.355469 L 271.476562 152.53125 C 271.679688 152.039062 272.195312 151.75 272.71875 151.835938 L 274.304688 152.097656 C 279.503906 152.960938 284.003906 148.441406 283.109375 143.242188 L 282.839844 141.664062 C 282.75 141.136719 283.035156 140.617188 283.527344 140.414062 L 293.628906 136.195312 C 294.121094 135.992188 294.6875 136.152344 294.996094 136.585938 L 295.933594 137.894531 C 298.996094 142.179688 305.378906 142.164062 308.421875 137.859375 L 309.351562 136.550781 C 309.65625 136.113281 310.222656 135.949219 310.714844 136.148438 L 320.839844 140.3125 C 321.332031 140.515625 321.617188 141.03125 321.535156 141.554688 L 321.269531 143.140625 C 320.40625 148.339844 324.929688 152.839844 330.125 151.949219 L 331.707031 151.675781 C 332.234375 151.585938 332.75 151.871094 332.953125 152.363281 L 337.171875 162.464844 C 337.378906 162.957031 337.21875 163.527344 336.785156 163.832031 L 335.476562 164.765625 C 331.191406 167.832031 331.207031 174.214844 335.511719 177.261719 L 336.820312 178.183594 C 337.253906 178.492188 337.417969 179.058594 337.21875 179.554688 L 333.054688 189.675781 C 332.855469 190.171875 332.335938 190.460938 331.8125 190.371094 L 330.230469 190.109375 C 325.03125 189.242188 320.53125 193.769531 321.421875 198.964844 L 321.691406 200.546875 C 321.78125 201.070312 321.496094 201.589844 321.003906 201.792969 L 310.902344 206.007812 C 310.410156 206.214844 309.84375 206.054688 309.535156 205.621094 L 308.601562 204.3125 C 305.535156 200.027344 299.15625 200.046875 296.109375 204.347656 L 295.183594 205.65625 C 294.875 206.09375 294.308594 206.257812 293.816406 206.054688 L 283.691406 201.890625 C 283.199219 201.691406 282.910156 201.175781 283 200.648438 L 283.261719 199.066406 C 284.125 193.867188 279.601562 189.367188 274.40625 190.257812 L 272.824219 190.53125 C 272.296875 190.617188 271.78125 190.335938 271.578125 189.84375 L 270.429688 187.085938 C 270.445312 187.132812 278.496094 186.601562 278.785156 186.582031 L 270.429688 185.769531 L 269.855469 185.714844 L 226.03125 181.457031 L 285.179688 181.457031 C 286.75 184.058594 288.851562 186.199219 291.285156 187.792969 C 296.644531 191.316406 303.597656 192.199219 309.960938 189.542969 C 320.140625 185.289062 324.953125 173.589844 320.703125 163.410156 C 316.457031 153.226562 304.753906 148.414062 294.570312 152.664062 C 293.433594 153.140625 292.367188 153.707031 291.371094 154.355469 C 288.800781 156.023438 286.707031 158.226562 285.179688 160.75 L 187.585938 160.75 " fill-opacity="1" fill-rule="nonzero"/></g><path fill="#000000" d="M 300.8125 154.21875 C 301.277344 154.183594 301.746094 154.164062 302.222656 154.164062 C 311.65625 154.164062 319.304688 161.808594 319.304688 171.242188 C 319.304688 180.675781 311.65625 188.324219 302.222656 188.324219 C 301.746094 188.324219 301.277344 188.300781 300.8125 188.265625 C 309.589844 187.550781 316.488281 180.203125 316.488281 171.242188 C 316.488281 162.285156 309.589844 154.933594 300.8125 154.21875 " fill-opacity="1" fill-rule="nonzero"/><g clip-path="url(#41d1e8e57e)"><path fill="#000000" d="M 203.148438 181.457031 L 122.511719 186.421875 L 120.542969 186.546875 L 110.847656 187.140625 L 120.007812 187.851562 L 119.257812 189.675781 C 119.054688 190.167969 118.539062 190.453125 118.011719 190.371094 L 116.429688 190.105469 C 111.226562 189.242188 106.730469 193.765625 107.621094 198.964844 L 107.890625 200.542969 C 107.980469 201.070312 107.699219 201.585938 107.207031 201.792969 L 97.101562 206.007812 C 96.613281 206.210938 96.046875 206.050781 95.734375 205.621094 L 94.800781 204.3125 C 91.734375 200.023438 85.351562 200.042969 82.308594 204.347656 L 81.382812 205.65625 C 81.074219 206.09375 80.507812 206.257812 80.019531 206.054688 L 69.890625 201.890625 C 69.398438 201.6875 69.113281 201.175781 69.199219 200.648438 L 69.460938 199.066406 C 70.324219 193.863281 65.800781 189.367188 60.605469 190.253906 L 59.023438 190.527344 C 58.5 190.617188 57.984375 190.335938 57.777344 189.84375 L 53.558594 179.738281 C 53.355469 179.25 53.515625 178.679688 53.949219 178.371094 L 55.253906 177.4375 C 59.542969 174.371094 59.527344 167.988281 55.222656 164.941406 L 53.910156 164.019531 C 53.476562 163.710938 53.3125 163.144531 53.515625 162.652344 L 57.675781 152.527344 C 57.878906 152.035156 58.394531 151.746094 58.917969 151.835938 L 60.5 152.097656 C 65.703125 152.960938 70.203125 148.433594 69.3125 143.238281 L 69.042969 141.65625 C 68.949219 141.136719 69.238281 140.617188 69.726562 140.414062 L 79.832031 136.195312 C 80.320312 135.992188 80.886719 136.152344 81.199219 136.585938 L 82.128906 137.890625 C 85.199219 142.179688 91.578125 142.160156 94.625 137.859375 L 95.546875 136.546875 C 95.859375 136.109375 96.425781 135.949219 96.914062 136.148438 L 107.039062 140.3125 C 107.535156 140.515625 107.820312 141.03125 107.730469 141.554688 L 107.46875 143.136719 C 106.605469 148.339844 111.132812 152.839844 116.328125 151.949219 L 117.910156 151.675781 C 118.433594 151.585938 118.949219 151.871094 119.15625 152.359375 L 120.304688 155.121094 C 120.289062 155.074219 112.238281 155.605469 111.949219 155.625 L 120.304688 156.4375 L 120.878906 156.492188 L 164.699219 160.746094 L 105.550781 160.746094 C 103.984375 158.144531 101.882812 156.007812 99.445312 154.410156 C 94.089844 150.890625 87.132812 150.007812 80.773438 152.664062 C 70.589844 156.914062 65.78125 168.613281 70.027344 178.796875 C 74.277344 188.980469 85.980469 193.789062 96.160156 189.539062 C 97.296875 189.066406 98.367188 188.5 99.363281 187.851562 C 101.933594 186.183594 104.027344 183.980469 105.550781 181.457031 L 203.148438 181.457031 " fill-opacity="1" fill-rule="nonzero"/></g><path fill="#000000" d="M 89.917969 187.984375 C 89.457031 188.023438 88.984375 188.042969 88.511719 188.042969 C 79.078125 188.042969 71.429688 180.394531 71.429688 170.964844 C 71.429688 161.53125 79.078125 153.882812 88.511719 153.882812 C 88.984375 153.882812 89.457031 153.902344 89.917969 153.941406 C 81.144531 154.652344 74.242188 162.003906 74.242188 170.964844 C 74.242188 179.921875 81.144531 187.273438 89.917969 187.984375 " fill-opacity="1" fill-rule="nonzero"/><g clip-path="url(#0044160a39)"><path fill="#000000" d="M 105.984375 175.652344 L 163.0625 175.652344 L 161.960938 177.265625 L 104.878906 177.265625 Z M 105.984375 175.652344 " fill-opacity="1" fill-rule="nonzero"/></g><path fill="#000000" d="M 111.195312 168.011719 L 168.273438 168.011719 L 163.835938 174.515625 L 106.757812 174.515625 Z M 111.195312 168.011719 " fill-opacity="1" fill-rule="nonzero"/><g clip-path="url(#e5ad275c3b)"><path fill="#000000" d="M 170.148438 165.265625 L 169.046875 166.878906 L 111.96875 166.878906 L 113.070312 165.265625 Z M 170.148438 165.265625 " fill-opacity="1" fill-rule="nonzero"/></g><g clip-path="url(#90ba4cc46c)"><path fill="#000000" d="M 273.902344 175.652344 L 277.28125 175.652344 L 276.179688 177.265625 L 272.800781 177.265625 Z M 273.902344 175.652344 " fill-opacity="1" fill-rule="nonzero"/></g><path fill="#000000" d="M 282.492188 168.011719 L 278.054688 174.515625 L 274.675781 174.515625 L 279.113281 168.011719 Z M 282.492188 168.011719 " fill-opacity="1" fill-rule="nonzero"/><g clip-path="url(#5df91b6db9)"><path fill="#000000" d="M 284.367188 165.265625 L 283.265625 166.878906 L 279.886719 166.878906 L 280.988281 165.265625 Z M 284.367188 165.265625 " fill-opacity="1" fill-rule="nonzero"/></g><g clip-path="url(#7408393765)"><path fill="#000000" d="M 258.28125 175.652344 L 263.203125 175.652344 L 262.101562 177.265625 L 257.179688 177.265625 Z M 258.28125 175.652344 " fill-opacity="1" fill-rule="nonzero"/></g><path fill="#000000" d="M 268.414062 168.011719 L 263.976562 174.515625 L 259.054688 174.515625 L 263.492188 168.011719 Z M 268.414062 168.011719 " fill-opacity="1" fill-rule="nonzero"/><g clip-path="url(#5a0f59b96e)"><path fill="#000000" d="M 270.289062 165.265625 L 269.1875 166.878906 L 264.265625 166.878906 L 265.367188 165.265625 Z M 270.289062 165.265625 " fill-opacity="1" fill-rule="nonzero"/></g><g clip-path="url(#05a557a293)"><path fill="#000000" d="M 242.660156 175.652344 L 249.125 175.652344 L 248.023438 177.265625 L 241.558594 177.265625 Z M 242.660156 175.652344 " fill-opacity="1" fill-rule="nonzero"/></g><path fill="#000000" d="M 254.335938 168.011719 L 249.898438 174.515625 L 243.433594 174.515625 L 247.871094 168.011719 Z M 254.335938 168.011719 " fill-opacity="1" fill-rule="nonzero"/><g clip-path="url(#1fee259146)"><path fill="#000000" d="M 256.214844 165.265625 L 255.109375 166.878906 L 248.644531 166.878906 L 249.746094 165.265625 Z M 256.214844 165.265625 " fill-opacity="1" fill-rule="nonzero"/></g><g clip-path="url(#ba40e42d06)"><path fill="#000000" d="M 227.039062 175.652344 L 235.046875 175.652344 L 233.945312 177.265625 L 225.9375 177.265625 Z M 227.039062 175.652344 " fill-opacity="1" fill-rule="nonzero"/></g><path fill="#000000" d="M 240.261719 168.011719 L 235.820312 174.515625 L 227.8125 174.515625 L 232.25 168.011719 Z M 240.261719 168.011719 " fill-opacity="1" fill-rule="nonzero"/><g clip-path="url(#b59d8d3f0f)"><path fill="#000000" d="M 242.136719 165.265625 L 241.035156 166.878906 L 233.023438 166.878906 L 234.125 165.265625 Z M 242.136719 165.265625 " fill-opacity="1" fill-rule="nonzero"/></g><g clip-path="url(#17fb22eff2)"><path fill="#000000" d="M 211.417969 175.652344 L 220.972656 175.652344 L 219.871094 177.265625 L 210.316406 177.265625 Z M 211.417969 175.652344 " fill-opacity="1" fill-rule="nonzero"/></g><path fill="#000000" d="M 226.183594 168.011719 L 221.746094 174.515625 L 212.191406 174.515625 L 216.628906 168.011719 Z M 226.183594 168.011719 " fill-opacity="1" fill-rule="nonzero"/><g clip-path="url(#3f6721b716)"><path fill="#000000" d="M 228.058594 165.265625 L 226.957031 166.878906 L 217.40625 166.878906 L 218.507812 165.265625 Z M 228.058594 165.265625 " fill-opacity="1" fill-rule="nonzero"/></g><g clip-path="url(#da58c84bcb)"><path fill="#000000" d="M 195.796875 175.652344 L 206.894531 175.652344 L 205.792969 177.265625 L 194.695312 177.265625 Z M 195.796875 175.652344 " fill-opacity="1" fill-rule="nonzero"/></g><path fill="#000000" d="M 212.105469 168.011719 L 207.667969 174.515625 L 196.570312 174.515625 L 201.011719 168.011719 Z M 212.105469 168.011719 " fill-opacity="1" fill-rule="nonzero"/><g clip-path="url(#5649cf0f21)"><path fill="#000000" d="M 213.980469 165.265625 L 212.878906 166.878906 L 201.785156 166.878906 L 202.886719 165.265625 Z M 213.980469 165.265625 " fill-opacity="1" fill-rule="nonzero"/></g><g clip-path="url(#6aea8a01cf)"><path fill="#000000" d="M 180.175781 175.652344 L 192.816406 175.652344 L 191.714844 177.265625 L 179.074219 177.265625 Z M 180.175781 175.652344 " fill-opacity="1" fill-rule="nonzero"/></g><path fill="#000000" d="M 198.027344 168.011719 L 193.589844 174.515625 L 180.949219 174.515625 L 185.390625 168.011719 Z M 198.027344 168.011719 " fill-opacity="1" fill-rule="nonzero"/><g clip-path="url(#d3c03c9a57)"><path fill="#000000" d="M 199.902344 165.265625 L 198.800781 166.878906 L 186.164062 166.878906 L 187.265625 165.265625 Z M 199.902344 165.265625 " fill-opacity="1" fill-rule="nonzero"/></g><g clip-path="url(#7af1512f28)"><path fill="#000000" d="M 164.558594 175.652344 L 178.738281 175.652344 L 177.636719 177.265625 L 163.457031 177.265625 Z M 164.558594 175.652344 " fill-opacity="1" fill-rule="nonzero"/></g><path fill="#000000" d="M 183.953125 168.011719 L 179.511719 174.515625 L 165.332031 174.515625 L 169.769531 168.011719 Z M 183.953125 168.011719 " fill-opacity="1" fill-rule="nonzero"/><g clip-path="url(#016f16a88a)"><path fill="#000000" d="M 185.828125 165.265625 L 184.726562 166.878906 L 170.542969 166.878906 L 171.644531 165.265625 Z M 185.828125 165.265625 " fill-opacity="1" fill-rule="nonzero"/></g><g clip-path="url(#92aee8685f)"><path fill="#022135" d="M 101.210938 172.699219 C 100.429688 172.058594 99.511719 171.554688 98.640625 171.046875 C 98.191406 170.789062 97.734375 170.527344 97.273438 170.285156 C 97.816406 169.648438 98.320312 168.984375 98.785156 168.277344 C 99.824219 166.703125 101.015625 164.484375 99.636719 162.738281 C 99 161.925781 98 161.742188 97.042969 162.054688 C 96.019531 162.390625 95.050781 162.996094 94.117188 163.527344 C 93.648438 163.789062 93.1875 164.070312 92.726562 164.355469 C 92.726562 164.355469 92.726562 164.355469 92.722656 164.351562 C 92.402344 163.46875 92.023438 162.601562 91.578125 161.757812 C 90.714844 160.152344 89.410156 158.214844 87.3125 158.503906 C 85.972656 158.691406 85.507812 159.714844 85.339844 160.871094 C 85.179688 160.851562 85.015625 160.855469 84.859375 160.898438 C 84.339844 161.03125 84.101562 161.523438 84.046875 162.027344 C 83.992188 162.515625 84.351562 162.910156 84.75 163.132812 C 84.90625 163.21875 85.078125 163.292969 85.253906 163.34375 C 85.253906 164.179688 85.273438 165.019531 85.320312 165.859375 C 84.699219 165.722656 84.082031 165.609375 83.460938 165.5 C 82.402344 165.320312 81.257812 165.066406 80.175781 165.144531 C 79.25 165.210938 78.277344 165.605469 77.808594 166.460938 C 77.308594 167.386719 77.640625 168.429688 78.21875 169.230469 C 79.320312 170.746094 81.050781 171.855469 82.628906 172.808594 C 82.359375 173.109375 82.097656 173.414062 81.84375 173.722656 C 81.71875 173.867188 81.59375 174.015625 81.46875 174.167969 C 81.433594 174.144531 81.402344 174.128906 81.367188 174.113281 C 80.960938 173.945312 80.46875 173.902344 80.066406 174.089844 C 79.597656 174.296875 79.335938 174.886719 79.519531 175.367188 C 79.625 175.632812 79.816406 175.867188 80.023438 176.074219 C 79.972656 176.15625 79.921875 176.238281 79.875 176.324219 C 79.386719 177.191406 79.171875 178.3125 79.707031 179.21875 C 80.191406 180.027344 81.117188 180.320312 82.015625 180.289062 C 82.925781 180.257812 83.824219 179.976562 84.667969 179.644531 C 85.621094 179.273438 86.554688 178.832031 87.457031 178.347656 C 87.539062 178.300781 87.621094 178.261719 87.703125 178.214844 C 87.917969 178.832031 88.144531 179.441406 88.382812 180.042969 C 88.789062 181.066406 89.160156 182.199219 89.902344 183.03125 C 90.519531 183.71875 91.515625 184.164062 92.4375 183.878906 C 93.25 183.628906 93.773438 182.914062 94.09375 182.164062 C 94.742188 180.664062 94.871094 178.898438 94.910156 177.25 C 95.574219 177.355469 96.242188 177.433594 96.914062 177.460938 C 97.058594 177.929688 97.429688 178.328125 97.890625 178.5 C 98.546875 178.742188 99.363281 178.410156 99.625 177.746094 C 99.632812 177.746094 99.632812 177.746094 99.632812 177.742188 C 99.746094 177.585938 99.808594 177.417969 99.816406 177.238281 C 100.972656 176.933594 101.972656 176.277344 102.210938 174.964844 C 102.363281 174.046875 101.902344 173.257812 101.210938 172.699219 Z M 88.195312 176.945312 C 88.011719 176.371094 87.835938 175.789062 87.667969 175.207031 C 88.421875 175.488281 89.175781 175.753906 89.933594 175.996094 C 89.351562 176.308594 88.773438 176.628906 88.195312 176.945312 Z M 86.125 166.929688 C 86.839844 167.097656 87.554688 167.285156 88.257812 167.480469 C 87.617188 167.988281 86.984375 168.515625 86.367188 169.0625 C 86.265625 168.351562 86.1875 167.640625 86.125 166.929688 Z M 93.25 167.816406 C 93.308594 168.019531 93.359375 168.222656 93.40625 168.429688 C 92.277344 167.945312 91.128906 167.515625 89.96875 167.128906 C 90.777344 166.511719 91.609375 165.925781 92.460938 165.375 C 92.769531 166.179688 93.027344 167 93.25 167.816406 Z M 93.628906 169.351562 C 93.816406 170.171875 93.980469 170.988281 94.140625 171.8125 C 94.148438 172.144531 94.140625 172.476562 94.132812 172.8125 C 94.132812 172.8125 94.132812 172.8125 94.132812 172.820312 C 93.261719 173.652344 92.347656 174.441406 91.425781 175.222656 C 91.125 175.390625 90.820312 175.546875 90.515625 175.699219 C 89.507812 175.410156 88.511719 175.074219 87.527344 174.726562 C 87.109375 173.1875 86.773438 171.632812 86.511719 170.0625 C 87.375 169.257812 88.257812 168.492188 89.175781 167.761719 C 90.691406 168.207031 92.179688 168.734375 93.628906 169.351562 Z M 86.527344 174.21875 C 85.671875 173.699219 84.839844 173.128906 83.976562 172.621094 C 83.972656 172.617188 83.96875 172.617188 83.960938 172.613281 C 84.570312 171.957031 85.191406 171.320312 85.828125 170.703125 C 86.015625 171.890625 86.25 173.0625 86.527344 174.21875 Z M 94.117188 173.464844 C 94.089844 174.128906 94.0625 174.789062 94.0625 175.445312 C 94.0625 175.792969 94.0625 176.140625 94.054688 176.488281 C 93.09375 176.339844 92.148438 176.128906 91.21875 175.886719 C 92.207031 175.109375 93.179688 174.3125 94.117188 173.464844 Z M 94.136719 169.570312 C 94.851562 169.878906 95.550781 170.210938 96.246094 170.570312 C 95.734375 171.179688 95.195312 171.765625 94.628906 172.332031 C 94.484375 171.402344 94.324219 170.480469 94.136719 169.570312 Z M 95.382812 163.640625 C 96.195312 163.195312 97.289062 162.425781 98.261719 162.632812 C 99.113281 162.820312 99.546875 163.773438 99.554688 164.574219 C 99.558594 165.589844 99.035156 166.527344 98.53125 167.371094 C 97.992188 168.277344 97.382812 169.15625 96.71875 169.988281 C 95.804688 169.511719 94.878906 169.066406 93.941406 168.65625 C 93.886719 168.421875 93.832031 168.183594 93.773438 167.953125 C 93.539062 166.972656 93.277344 166.003906 92.960938 165.058594 C 93.753906 164.558594 94.558594 164.089844 95.382812 163.640625 Z M 86.003906 165.203125 C 85.980469 164.597656 85.96875 163.996094 85.964844 163.394531 C 86.085938 163.359375 86.207031 163.304688 86.316406 163.214844 C 86.730469 163.035156 87.105469 162.640625 86.972656 162.152344 C 86.917969 161.941406 86.792969 161.746094 86.648438 161.585938 C 86.574219 161.507812 86.496094 161.4375 86.414062 161.375 C 86.386719 161.355469 86.355469 161.332031 86.328125 161.308594 L 86.304688 161.285156 C 86.296875 161.277344 86.28125 161.265625 86.269531 161.261719 C 86.222656 161.222656 86.175781 161.195312 86.125 161.164062 C 86.085938 161.136719 86.050781 161.117188 86.011719 161.09375 C 86.050781 160.519531 86.179688 159.945312 86.597656 159.566406 C 87.226562 158.992188 88.242188 159.128906 88.917969 159.546875 C 89.390625 159.832031 89.769531 160.234375 90.082031 160.679688 C 90.089844 160.683594 90.089844 160.691406 90.09375 160.691406 C 89.753906 160.5 89.394531 160.324219 89.03125 160.171875 C 88.945312 160.136719 88.882812 160.285156 88.96875 160.324219 C 89.398438 160.515625 89.820312 160.742188 90.214844 161 C 90.28125 161.042969 90.34375 161.09375 90.410156 161.140625 C 90.515625 161.300781 90.613281 161.46875 90.707031 161.632812 C 91.054688 162.226562 91.375 162.832031 91.664062 163.457031 C 91.664062 163.457031 91.664062 163.464844 91.667969 163.464844 C 91.59375 163.40625 91.519531 163.347656 91.441406 163.292969 C 90.832031 162.863281 90.183594 162.511719 89.484375 162.25 C 89.445312 162.234375 89.421875 162.296875 89.457031 162.316406 C 90.089844 162.648438 90.710938 163.023438 91.292969 163.449219 C 91.5 163.597656 91.695312 163.757812 91.886719 163.925781 C 92 164.171875 92.105469 164.425781 92.207031 164.679688 C 91.144531 165.355469 90.105469 166.082031 89.097656 166.84375 C 88.296875 166.59375 87.480469 166.371094 86.667969 166.167969 C 86.472656 166.117188 86.269531 166.070312 86.070312 166.023438 C 86.035156 165.75 86.019531 165.472656 86.003906 165.203125 Z M 82.402344 171.65625 C 82.398438 171.65625 82.398438 171.652344 82.390625 171.652344 C 82.359375 171.617188 82.324219 171.585938 82.292969 171.550781 C 82.179688 171.425781 82.066406 171.300781 81.960938 171.171875 C 81.738281 170.894531 81.53125 170.609375 81.339844 170.308594 C 80.976562 169.734375 80.675781 169.117188 80.375 168.511719 C 80.367188 168.492188 80.339844 168.507812 80.34375 168.527344 C 80.46875 169.226562 80.75 169.871094 81.121094 170.476562 C 81.246094 170.679688 81.382812 170.871094 81.515625 171.0625 C 81.023438 170.71875 80.546875 170.351562 80.097656 169.964844 C 79.980469 169.863281 79.875 169.765625 79.757812 169.664062 C 79.667969 169.417969 79.582031 169.175781 79.503906 168.925781 C 79.34375 168.40625 79.234375 167.863281 79.136719 167.328125 C 79.128906 167.273438 79.039062 167.289062 79.039062 167.34375 C 79.011719 167.910156 79.089844 168.453125 79.226562 169.003906 C 79.242188 169.066406 79.261719 169.125 79.277344 169.179688 C 79.003906 168.875 78.765625 168.546875 78.59375 168.179688 C 78.1875 167.289062 78.601562 166.464844 79.511719 166.148438 C 80.460938 165.820312 81.589844 166.089844 82.554688 166.238281 C 83.5 166.382812 84.445312 166.558594 85.378906 166.765625 C 85.449219 167.738281 85.546875 168.71875 85.683594 169.6875 C 85.109375 170.210938 84.554688 170.75 84.015625 171.304688 C 83.738281 171.585938 83.46875 171.871094 83.210938 172.160156 C 82.9375 171.996094 82.667969 171.828125 82.402344 171.65625 Z M 83.53125 179.109375 C 82.855469 179.324219 82.085938 179.511719 81.375 179.371094 C 80.414062 179.179688 80.082031 178.253906 80.339844 177.375 C 80.421875 177.105469 80.535156 176.847656 80.683594 176.597656 C 80.863281 176.683594 81.058594 176.742188 81.273438 176.730469 C 82.0625 176.695312 82.304688 175.820312 82.164062 175.160156 C 82.164062 175.152344 82.164062 175.140625 82.160156 175.136719 C 82.136719 175.015625 82.105469 174.902344 82.0625 174.792969 C 82.492188 174.265625 82.925781 173.757812 83.378906 173.25 C 83.714844 173.445312 84.050781 173.628906 84.398438 173.796875 C 84.398438 173.839844 84.417969 173.882812 84.464844 173.902344 C 85.195312 174.222656 85.9375 174.527344 86.683594 174.824219 C 86.851562 175.484375 87.035156 176.140625 87.234375 176.789062 C 87.289062 176.984375 87.351562 177.179688 87.417969 177.371094 C 86.175781 178.054688 84.886719 178.695312 83.53125 179.109375 Z M 91.128906 182.898438 C 90.230469 182.421875 89.851562 181.351562 89.484375 180.464844 C 89.113281 179.574219 88.777344 178.671875 88.464844 177.761719 C 88.773438 177.585938 89.074219 177.402344 89.375 177.203125 C 89.410156 177.222656 89.457031 177.230469 89.492188 177.199219 C 89.914062 176.886719 90.335938 176.570312 90.753906 176.253906 C 90.773438 176.261719 90.789062 176.265625 90.808594 176.277344 C 91.878906 176.597656 92.957031 176.882812 94.042969 177.09375 C 94.039062 177.308594 94.035156 177.519531 94.019531 177.730469 C 94.019531 177.730469 94.019531 177.738281 94.019531 177.738281 C 93.902344 178.007812 93.769531 178.277344 93.613281 178.523438 C 93.53125 178.660156 93.4375 178.785156 93.339844 178.910156 C 93.339844 178.902344 93.332031 178.898438 93.328125 178.898438 C 93.3125 178.898438 93.3125 178.917969 93.324219 178.925781 C 93.054688 179.261719 92.746094 179.566406 92.46875 179.894531 C 92.453125 179.910156 92.46875 179.945312 92.492188 179.933594 C 93.070312 179.703125 93.503906 179.210938 93.851562 178.710938 C 93.894531 178.648438 93.929688 178.585938 93.964844 178.523438 C 93.964844 178.523438 93.964844 178.53125 93.964844 178.53125 C 93.972656 178.535156 93.964844 178.535156 93.964844 178.535156 C 93.925781 179.054688 93.855469 179.574219 93.765625 180.085938 C 93.640625 180.351562 93.488281 180.609375 93.316406 180.84375 C 92.960938 181.335938 92.488281 181.738281 92.027344 182.132812 C 92.007812 182.148438 92.027344 182.183594 92.054688 182.175781 C 92.664062 181.976562 93.152344 181.550781 93.550781 181.054688 C 93.203125 182.246094 92.488281 183.621094 91.128906 182.898438 Z M 100.824219 175.976562 C 100.480469 176.285156 100.066406 176.476562 99.621094 176.597656 C 99.5625 176.507812 99.484375 176.425781 99.402344 176.355469 C 99.019531 176.027344 98.492188 175.835938 97.984375 175.871094 C 97.738281 175.890625 97.496094 175.949219 97.289062 176.085938 C 97.039062 176.25 96.894531 176.488281 96.847656 176.773438 C 96.199219 176.746094 95.550781 176.695312 94.910156 176.617188 L 94.910156 176.597656 C 94.914062 175.90625 94.902344 175.222656 94.863281 174.535156 C 94.898438 174.507812 94.925781 174.476562 94.917969 174.425781 C 94.859375 173.921875 94.789062 173.414062 94.71875 172.914062 C 95.417969 172.265625 96.085938 171.601562 96.722656 170.902344 C 96.765625 170.9375 96.8125 170.972656 96.851562 171.011719 C 97.089844 171.234375 97.3125 171.476562 97.527344 171.726562 C 97.953125 172.210938 98.316406 172.765625 98.636719 173.332031 C 98.667969 173.382812 98.753906 173.347656 98.734375 173.289062 C 98.625 172.972656 98.5 172.664062 98.328125 172.375 C 98.160156 172.078125 97.960938 171.796875 97.753906 171.535156 C 97.671875 171.425781 97.578125 171.320312 97.484375 171.21875 C 97.484375 171.21875 97.492188 171.21875 97.492188 171.21875 C 97.972656 171.476562 98.4375 171.75 98.90625 172.03125 C 99.125 172.265625 99.332031 172.511719 99.53125 172.765625 C 99.953125 173.300781 100.324219 173.882812 100.65625 174.472656 C 100.683594 174.515625 100.753906 174.488281 100.734375 174.441406 C 100.480469 173.792969 100.15625 173.203125 99.746094 172.644531 C 99.691406 172.570312 99.636719 172.507812 99.585938 172.433594 C 99.585938 172.433594 99.589844 172.441406 99.589844 172.441406 C 100.175781 172.78125 100.785156 173.160156 101.195312 173.679688 C 101.789062 174.429688 101.480469 175.375 100.824219 175.976562 Z M 100.824219 175.976562 " fill-opacity="1" fill-rule="nonzero"/></g><path fill="#022135" d="M 90.554688 173.027344 C 90.695312 173.058594 90.839844 173.066406 90.980469 173.046875 C 91.144531 173.019531 91.324219 172.890625 91.425781 172.765625 C 91.65625 172.507812 91.753906 172.195312 91.761719 171.855469 C 91.785156 171.203125 91.460938 170.53125 90.9375 170.144531 C 90.382812 169.734375 89.554688 169.734375 89.003906 170.15625 C 88.480469 170.558594 88.25 171.257812 88.398438 171.894531 C 88.605469 172.796875 89.683594 173.476562 90.554688 173.027344 Z M 89.238281 170.6875 C 89.328125 170.601562 89.378906 170.570312 89.507812 170.496094 C 89.542969 170.476562 89.566406 170.472656 89.636719 170.449219 C 89.667969 170.441406 89.699219 170.433594 89.738281 170.425781 C 89.753906 170.417969 89.761719 170.417969 89.777344 170.414062 C 89.789062 170.414062 89.792969 170.410156 89.796875 170.410156 C 89.796875 170.410156 89.804688 170.410156 89.804688 170.410156 C 89.945312 170.394531 90.089844 170.398438 90.207031 170.425781 C 90.265625 170.433594 90.324219 170.457031 90.378906 170.472656 C 90.421875 170.488281 90.375 170.464844 90.425781 170.492188 C 90.457031 170.507812 90.488281 170.523438 90.519531 170.542969 C 90.632812 170.609375 90.664062 170.636719 90.769531 170.742188 C 90.789062 170.761719 90.808594 170.789062 90.832031 170.8125 C 90.867188 170.855469 90.835938 170.816406 90.859375 170.847656 C 90.898438 170.902344 90.933594 170.953125 90.960938 171.011719 C 90.976562 171.035156 90.992188 171.066406 91 171.097656 C 91.027344 171.15625 91.007812 171.097656 91.023438 171.140625 C 91.042969 171.195312 91.0625 171.257812 91.085938 171.320312 C 91.101562 171.382812 91.117188 171.445312 91.125 171.507812 C 91.125 171.519531 91.125 171.519531 91.128906 171.523438 C 91.128906 171.527344 91.128906 171.527344 91.128906 171.535156 C 91.136719 171.570312 91.136719 171.605469 91.140625 171.640625 C 91.144531 171.714844 91.140625 171.78125 91.136719 171.855469 C 91.136719 171.871094 91.128906 171.878906 91.128906 171.894531 C 91.128906 171.894531 91.128906 171.902344 91.128906 171.902344 C 91.125 171.933594 91.121094 171.957031 91.109375 171.988281 C 91.101562 172.019531 91.09375 172.058594 91.085938 172.089844 C 91.078125 172.097656 91.070312 172.132812 91.058594 172.15625 C 91.046875 172.175781 91.027344 172.222656 91.03125 172.222656 C 91.03125 172.226562 91.027344 172.242188 91.023438 172.253906 C 91.015625 172.269531 90.996094 172.3125 90.992188 172.320312 C 90.960938 172.378906 90.921875 172.429688 90.886719 172.480469 C 90.882812 172.492188 90.851562 172.535156 90.851562 172.539062 C 90.832031 172.566406 90.808594 172.585938 90.789062 172.605469 C 90.695312 172.714844 90.632812 172.828125 90.53125 172.925781 C 90.136719 172.921875 89.738281 172.71875 89.429688 172.488281 C 89.332031 172.414062 89.199219 172.285156 89.144531 172.210938 C 89.109375 172.160156 89.074219 172.109375 89.042969 172.058594 C 89.027344 172.027344 89.011719 172 88.996094 171.96875 C 88.996094 171.96875 88.992188 171.957031 88.984375 171.949219 C 88.980469 171.9375 88.96875 171.902344 88.96875 171.902344 C 88.824219 171.472656 88.921875 171 89.238281 170.6875 Z M 89.238281 170.6875 " fill-opacity="1" fill-rule="nonzero"/><path fill="#022135" d="M 100.277344 167.101562 C 100.164062 167.292969 100.035156 167.480469 99.894531 167.652344 C 99.765625 167.8125 99.609375 167.957031 99.492188 168.128906 C 99.390625 168.273438 99.585938 168.453125 99.730469 168.367188 C 100.09375 168.136719 100.378906 167.6875 100.585938 167.320312 C 100.8125 166.921875 100.984375 166.480469 101.09375 166.035156 C 101.308594 165.136719 101.273438 164.1875 100.972656 163.3125 C 100.917969 163.15625 100.671875 163.21875 100.71875 163.378906 C 100.980469 164.210938 100.992188 165.101562 100.765625 165.941406 C 100.652344 166.351562 100.492188 166.738281 100.277344 167.101562 Z M 100.277344 167.101562 " fill-opacity="1" fill-rule="nonzero"/><path fill="#022135" d="M 99.210938 168.746094 C 99.183594 168.753906 99.160156 168.761719 99.132812 168.769531 C 99.082031 168.792969 99.054688 168.828125 99.023438 168.875 C 98.988281 168.925781 98.953125 168.976562 98.921875 169.03125 C 98.855469 169.140625 98.78125 169.242188 98.703125 169.339844 C 98.621094 169.445312 98.527344 169.53125 98.445312 169.632812 C 98.355469 169.730469 98.261719 169.828125 98.164062 169.917969 C 98.117188 169.957031 98.179688 170.023438 98.230469 170.003906 C 98.355469 169.949219 98.476562 169.878906 98.589844 169.808594 C 98.707031 169.734375 98.8125 169.632812 98.910156 169.53125 C 99.015625 169.429688 99.109375 169.320312 99.191406 169.207031 C 99.230469 169.15625 99.261719 169.097656 99.292969 169.039062 C 99.320312 169 99.339844 168.957031 99.335938 168.90625 C 99.335938 168.871094 99.320312 168.839844 99.316406 168.800781 C 99.300781 168.761719 99.253906 168.734375 99.210938 168.746094 Z M 99.210938 168.746094 " fill-opacity="1" fill-rule="nonzero"/><g clip-path="url(#9c47c6a93e)"><path fill="#022135" d="M 90.515625 159.328125 C 90.652344 159.425781 90.785156 159.535156 90.90625 159.648438 C 91.152344 159.871094 91.386719 160.117188 91.582031 160.386719 C 91.976562 160.925781 92.203125 161.546875 92.488281 162.140625 C 92.5 162.164062 92.53125 162.152344 92.53125 162.132812 C 92.566406 161.4375 92.234375 160.761719 91.847656 160.203125 C 91.648438 159.914062 91.421875 159.636719 91.15625 159.40625 C 91.03125 159.292969 90.902344 159.1875 90.769531 159.089844 C 90.636719 158.992188 90.460938 158.835938 90.296875 158.808594 C 90.183594 158.792969 90.03125 158.914062 90.125 159.03125 C 90.222656 159.160156 90.382812 159.234375 90.515625 159.328125 Z M 90.515625 159.328125 " fill-opacity="1" fill-rule="nonzero"/></g><g clip-path="url(#54996fc88c)"><path fill="#022135" d="M 88.839844 158.234375 C 88.921875 158.246094 89 158.265625 89.078125 158.289062 C 89.160156 158.320312 89.246094 158.335938 89.328125 158.367188 C 89.363281 158.382812 89.367188 158.382812 89.414062 158.410156 C 89.453125 158.429688 89.492188 158.453125 89.527344 158.472656 C 89.542969 158.484375 89.566406 158.488281 89.582031 158.5 C 89.589844 158.503906 89.597656 158.507812 89.585938 158.5 C 89.613281 158.507812 89.636719 158.523438 89.664062 158.535156 C 89.714844 158.550781 89.761719 158.535156 89.808594 158.519531 C 89.839844 158.507812 89.855469 158.484375 89.859375 158.453125 C 89.867188 158.40625 89.867188 158.351562 89.839844 158.3125 C 89.808594 158.265625 89.746094 158.214844 89.699219 158.1875 C 89.613281 158.140625 89.515625 158.105469 89.414062 158.082031 C 89.328125 158.0625 89.222656 158.035156 89.128906 158.046875 C 89.03125 158.058594 88.9375 158.078125 88.84375 158.109375 C 88.78125 158.125 88.765625 158.222656 88.839844 158.234375 Z M 88.839844 158.234375 " fill-opacity="1" fill-rule="nonzero"/></g><path fill="#022135" d="M 84.894531 179.960938 C 84.558594 180.023438 84.261719 180.183594 83.941406 180.292969 C 83.605469 180.40625 83.261719 180.484375 82.910156 180.542969 C 82.558594 180.597656 82.207031 180.636719 81.847656 180.671875 C 81.507812 180.703125 81.164062 180.722656 80.835938 180.832031 C 80.816406 180.835938 80.816406 180.867188 80.835938 180.875 C 81.179688 180.964844 81.53125 180.964844 81.882812 180.957031 C 82.257812 180.945312 82.628906 180.921875 83 180.863281 C 83.363281 180.8125 83.71875 180.726562 84.066406 180.613281 C 84.410156 180.5 84.738281 180.382812 84.972656 180.089844 C 85.023438 180.035156 84.980469 179.945312 84.894531 179.960938 Z M 84.894531 179.960938 " fill-opacity="1" fill-rule="nonzero"/><path fill="#022135" d="M 86.28125 179.4375 C 86.171875 179.515625 86.058594 179.589844 85.9375 179.644531 C 85.910156 179.660156 85.878906 179.671875 85.855469 179.6875 C 85.839844 179.691406 85.824219 179.703125 85.808594 179.707031 C 85.808594 179.707031 85.800781 179.707031 85.800781 179.707031 C 85.796875 179.707031 85.777344 179.71875 85.78125 179.71875 C 85.746094 179.734375 85.703125 179.742188 85.667969 179.765625 C 85.636719 179.78125 85.609375 179.800781 85.585938 179.816406 C 85.53125 179.847656 85.449219 179.925781 85.460938 179.996094 C 85.472656 180.074219 85.59375 180.101562 85.664062 180.097656 C 85.699219 180.089844 85.730469 180.085938 85.765625 180.082031 C 85.8125 180.070312 85.855469 180.054688 85.894531 180.035156 C 85.957031 180.003906 86.015625 179.972656 86.070312 179.941406 C 86.207031 179.863281 86.335938 179.769531 86.460938 179.664062 C 86.511719 179.617188 86.511719 179.53125 86.472656 179.480469 C 86.425781 179.425781 86.335938 179.394531 86.28125 179.4375 Z M 86.28125 179.4375 " fill-opacity="1" fill-rule="nonzero"/><path fill="#022135" d="M 95.417969 179.25 C 95.480469 179.941406 95.40625 180.640625 95.214844 181.304688 C 95.121094 181.640625 94.992188 181.96875 94.832031 182.277344 C 94.703125 182.53125 94.425781 182.820312 94.425781 183.113281 C 94.425781 183.152344 94.46875 183.183594 94.503906 183.167969 C 94.804688 183.074219 94.976562 182.65625 95.105469 182.398438 C 95.265625 182.070312 95.402344 181.726562 95.496094 181.375 C 95.6875 180.671875 95.710938 179.941406 95.605469 179.21875 C 95.582031 179.121094 95.40625 179.148438 95.417969 179.25 Z M 95.417969 179.25 " fill-opacity="1" fill-rule="nonzero"/><path fill="#022135" d="M 94.0625 183.433594 C 94.035156 183.433594 93.996094 183.433594 93.964844 183.433594 C 93.929688 183.433594 93.898438 183.445312 93.863281 183.453125 C 93.820312 183.464844 93.78125 183.476562 93.742188 183.496094 C 93.710938 183.511719 93.679688 183.527344 93.648438 183.542969 C 93.585938 183.574219 93.53125 183.605469 93.46875 183.636719 C 93.453125 183.640625 93.4375 183.652344 93.425781 183.65625 C 93.402344 183.671875 93.378906 183.691406 93.359375 183.71875 C 93.339844 183.746094 93.324219 183.769531 93.300781 183.792969 C 93.265625 183.839844 93.3125 183.90625 93.371094 183.90625 C 93.402344 183.90625 93.4375 183.90625 93.46875 183.90625 C 93.515625 183.90625 93.550781 183.882812 93.597656 183.863281 C 93.660156 183.832031 93.722656 183.800781 93.789062 183.769531 C 93.820312 183.753906 93.851562 183.746094 93.882812 183.722656 C 93.914062 183.707031 93.941406 183.683594 93.964844 183.660156 C 94.003906 183.636719 94.035156 183.609375 94.058594 183.578125 C 94.078125 183.554688 94.09375 183.527344 94.117188 183.507812 C 94.132812 183.480469 94.101562 183.433594 94.0625 183.433594 Z M 94.0625 183.433594 " fill-opacity="1" fill-rule="nonzero"/><path fill="#022135" d="M 98.429688 163.6875 C 98.464844 163.816406 98.523438 163.941406 98.558594 164.070312 C 98.625 164.324219 98.667969 164.589844 98.660156 164.859375 C 98.660156 164.929688 98.703125 164.992188 98.761719 165.027344 C 98.828125 165.070312 98.894531 165.066406 98.960938 165.027344 C 99.023438 164.996094 99.0625 164.925781 99.0625 164.859375 C 99.0625 164.550781 99.015625 164.246094 98.90625 163.960938 C 98.847656 163.816406 98.792969 163.664062 98.691406 163.546875 C 98.652344 163.488281 98.605469 163.4375 98.554688 163.386719 C 98.5 163.332031 98.453125 163.304688 98.382812 163.28125 C 98.355469 163.273438 98.328125 163.296875 98.328125 163.320312 C 98.328125 163.390625 98.339844 163.441406 98.367188 163.511719 C 98.390625 163.566406 98.414062 163.628906 98.429688 163.6875 Z M 98.429688 163.6875 " fill-opacity="1" fill-rule="nonzero"/><path fill="#022135" d="M 90.472656 171.164062 C 90.476562 171.210938 90.488281 171.25 90.5 171.289062 C 90.503906 171.304688 90.507812 171.324219 90.507812 171.339844 C 90.507812 171.351562 90.515625 171.355469 90.515625 171.367188 C 90.515625 171.371094 90.515625 171.371094 90.515625 171.371094 C 90.519531 171.445312 90.523438 171.519531 90.523438 171.589844 C 90.523438 171.609375 90.523438 171.625 90.519531 171.640625 C 90.519531 171.652344 90.519531 171.65625 90.519531 171.667969 C 90.515625 171.703125 90.503906 171.742188 90.492188 171.777344 C 90.472656 171.859375 90.523438 171.964844 90.605469 171.984375 C 90.691406 172.003906 90.792969 171.957031 90.816406 171.871094 C 90.816406 171.863281 90.816406 171.859375 90.820312 171.855469 C 90.820312 171.855469 90.820312 171.851562 90.820312 171.851562 C 90.859375 171.671875 90.867188 171.492188 90.808594 171.320312 C 90.777344 171.234375 90.746094 171.132812 90.679688 171.070312 C 90.621094 171.015625 90.554688 170.96875 90.488281 170.921875 C 90.445312 170.894531 90.410156 170.949219 90.425781 170.984375 C 90.457031 171.042969 90.46875 171.101562 90.472656 171.164062 Z M 90.757812 171.679688 C 90.753906 171.679688 90.753906 171.671875 90.746094 171.671875 C 90.769531 171.679688 90.769531 171.683594 90.757812 171.679688 Z M 90.710938 171.652344 C 90.707031 171.652344 90.699219 171.652344 90.695312 171.652344 C 90.679688 171.648438 90.679688 171.640625 90.710938 171.652344 Z M 90.710938 171.652344 " fill-opacity="1" fill-rule="nonzero"/><g clip-path="url(#d7c3f46534)"><path fill="#000000" d="M 311.160156 172.03125 C 310.363281 171.367188 309.429688 170.847656 308.542969 170.324219 C 308.082031 170.058594 307.621094 169.789062 307.148438 169.539062 C 307.703125 168.878906 308.214844 168.195312 308.691406 167.464844 C 309.746094 165.839844 310.957031 163.546875 309.554688 161.746094 C 308.90625 160.902344 307.886719 160.71875 306.917969 161.039062 C 305.875 161.386719 304.886719 162.011719 303.9375 162.558594 C 303.460938 162.832031 302.992188 163.121094 302.523438 163.414062 C 302.523438 163.414062 302.523438 163.414062 302.519531 163.410156 C 302.191406 162.5 301.804688 161.605469 301.351562 160.734375 C 300.476562 159.074219 299.148438 157.070312 297.011719 157.371094 C 295.648438 157.5625 295.175781 158.625 295.007812 159.816406 C 294.84375 159.796875 294.675781 159.800781 294.515625 159.84375 C 293.988281 159.984375 293.746094 160.492188 293.6875 161.011719 C 293.636719 161.515625 294 161.921875 294.40625 162.152344 C 294.5625 162.242188 294.738281 162.316406 294.917969 162.371094 C 294.917969 163.234375 294.9375 164.101562 294.984375 164.964844 C 294.351562 164.828125 293.726562 164.710938 293.09375 164.597656 C 292.015625 164.410156 290.851562 164.148438 289.746094 164.226562 C 288.808594 164.296875 287.816406 164.703125 287.34375 165.585938 C 286.832031 166.546875 287.167969 167.621094 287.757812 168.449219 C 288.878906 170.015625 290.640625 171.160156 292.246094 172.144531 C 291.972656 172.453125 291.703125 172.769531 291.445312 173.085938 C 291.320312 173.234375 291.191406 173.390625 291.066406 173.546875 C 291.03125 173.523438 290.996094 173.507812 290.960938 173.492188 C 290.550781 173.316406 290.046875 173.273438 289.636719 173.464844 C 289.160156 173.679688 288.894531 174.289062 289.082031 174.789062 C 289.1875 175.0625 289.382812 175.300781 289.59375 175.515625 C 289.542969 175.601562 289.488281 175.6875 289.441406 175.773438 C 288.945312 176.671875 288.730469 177.828125 289.273438 178.765625 C 289.761719 179.601562 290.707031 179.898438 291.621094 179.867188 C 292.546875 179.835938 293.460938 179.546875 294.320312 179.203125 C 295.292969 178.820312 296.242188 178.363281 297.160156 177.867188 C 297.242188 177.816406 297.328125 177.773438 297.414062 177.726562 C 297.628906 178.363281 297.859375 178.996094 298.101562 179.617188 C 298.515625 180.671875 298.894531 181.84375 299.648438 182.699219 C 300.277344 183.410156 301.289062 183.871094 302.226562 183.578125 C 303.058594 183.320312 303.589844 182.582031 303.917969 181.804688 C 304.574219 180.257812 304.707031 178.433594 304.746094 176.730469 C 305.417969 176.839844 306.101562 176.917969 306.785156 176.949219 C 306.933594 177.433594 307.308594 177.84375 307.777344 178.019531 C 308.449219 178.273438 309.277344 177.929688 309.546875 177.246094 C 309.550781 177.246094 309.550781 177.246094 309.550781 177.238281 C 309.667969 177.078125 309.730469 176.902344 309.742188 176.71875 C 310.917969 176.40625 311.933594 175.726562 312.175781 174.371094 C 312.332031 173.421875 311.859375 172.609375 311.160156 172.03125 Z M 297.914062 176.414062 C 297.722656 175.820312 297.542969 175.222656 297.375 174.621094 C 298.140625 174.910156 298.910156 175.183594 299.679688 175.4375 C 299.089844 175.757812 298.5 176.089844 297.914062 176.414062 Z M 295.804688 166.074219 C 296.53125 166.246094 297.257812 166.4375 297.976562 166.640625 C 297.324219 167.167969 296.679688 167.710938 296.050781 168.273438 C 295.945312 167.542969 295.867188 166.808594 295.804688 166.074219 Z M 303.054688 166.988281 C 303.113281 167.199219 303.167969 167.40625 303.214844 167.621094 C 302.066406 167.125 300.898438 166.679688 299.71875 166.277344 C 300.539062 165.640625 301.382812 165.035156 302.253906 164.46875 C 302.566406 165.296875 302.828125 166.144531 303.054688 166.988281 Z M 303.441406 168.574219 C 303.632812 169.417969 303.800781 170.265625 303.964844 171.117188 C 303.96875 171.460938 303.964844 171.800781 303.953125 172.148438 C 303.953125 172.148438 303.953125 172.148438 303.953125 172.15625 C 303.066406 173.015625 302.140625 173.832031 301.199219 174.636719 C 300.894531 174.808594 300.582031 174.96875 300.269531 175.132812 C 299.246094 174.832031 298.234375 174.484375 297.234375 174.125 C 296.804688 172.535156 296.460938 170.929688 296.199219 169.308594 C 297.074219 168.476562 297.976562 167.6875 298.910156 166.929688 C 300.449219 167.390625 301.964844 167.9375 303.441406 168.574219 Z M 296.214844 173.601562 C 295.34375 173.066406 294.496094 172.476562 293.621094 171.953125 C 293.613281 171.945312 293.609375 171.945312 293.605469 171.941406 C 294.222656 171.265625 294.855469 170.609375 295.503906 169.972656 C 295.691406 171.195312 295.929688 172.40625 296.214844 173.601562 Z M 303.9375 172.824219 C 303.910156 173.507812 303.886719 174.1875 303.886719 174.867188 C 303.886719 175.226562 303.886719 175.585938 303.875 175.945312 C 302.898438 175.789062 301.933594 175.574219 300.988281 175.324219 C 301.996094 174.519531 302.984375 173.695312 303.9375 172.824219 Z M 303.957031 168.800781 C 304.6875 169.121094 305.398438 169.460938 306.105469 169.832031 C 305.582031 170.464844 305.035156 171.070312 304.460938 171.652344 C 304.3125 170.695312 304.148438 169.742188 303.957031 168.800781 Z M 305.226562 162.675781 C 306.054688 162.214844 307.164062 161.421875 308.15625 161.636719 C 309.023438 161.832031 309.464844 162.816406 309.472656 163.640625 C 309.476562 164.6875 308.945312 165.65625 308.433594 166.53125 C 307.882812 167.464844 307.261719 168.371094 306.585938 169.234375 C 305.65625 168.738281 304.714844 168.28125 303.757812 167.855469 C 303.707031 167.617188 303.648438 167.371094 303.589844 167.128906 C 303.351562 166.117188 303.082031 165.117188 302.761719 164.140625 C 303.566406 163.625 304.386719 163.140625 305.226562 162.675781 Z M 295.683594 164.292969 C 295.65625 163.667969 295.644531 163.046875 295.640625 162.425781 C 295.765625 162.386719 295.886719 162.328125 296 162.238281 C 296.421875 162.050781 296.800781 161.644531 296.667969 161.140625 C 296.609375 160.921875 296.484375 160.722656 296.335938 160.554688 C 296.261719 160.476562 296.183594 160.402344 296.097656 160.335938 C 296.074219 160.316406 296.039062 160.292969 296.007812 160.265625 L 295.988281 160.246094 C 295.976562 160.234375 295.960938 160.222656 295.949219 160.21875 C 295.902344 160.183594 295.855469 160.148438 295.804688 160.117188 C 295.765625 160.089844 295.730469 160.070312 295.6875 160.046875 C 295.730469 159.453125 295.863281 158.859375 296.285156 158.46875 C 296.925781 157.875 297.960938 158.019531 298.648438 158.449219 C 299.125 158.742188 299.511719 159.160156 299.832031 159.621094 C 299.839844 159.625 299.839844 159.628906 299.84375 159.628906 C 299.496094 159.433594 299.132812 159.25 298.761719 159.09375 C 298.671875 159.058594 298.609375 159.210938 298.699219 159.25 C 299.136719 159.449219 299.566406 159.683594 299.964844 159.953125 C 300.035156 159.996094 300.097656 160.046875 300.164062 160.097656 C 300.269531 160.261719 300.371094 160.433594 300.464844 160.605469 C 300.820312 161.214844 301.148438 161.839844 301.441406 162.488281 C 301.441406 162.488281 301.441406 162.492188 301.449219 162.492188 C 301.367188 162.433594 301.292969 162.375 301.214844 162.316406 C 300.59375 161.871094 299.933594 161.507812 299.222656 161.242188 C 299.183594 161.226562 299.160156 161.289062 299.195312 161.3125 C 299.839844 161.652344 300.472656 162.039062 301.0625 162.476562 C 301.273438 162.632812 301.472656 162.800781 301.667969 162.96875 C 301.785156 163.226562 301.890625 163.488281 301.996094 163.75 C 300.914062 164.449219 299.855469 165.195312 298.832031 165.984375 C 298.011719 165.726562 297.183594 165.496094 296.355469 165.289062 C 296.15625 165.234375 295.949219 165.1875 295.75 165.136719 C 295.714844 164.855469 295.699219 164.570312 295.683594 164.292969 Z M 292.015625 170.957031 C 292.011719 170.957031 292.011719 170.949219 292.003906 170.949219 C 291.972656 170.914062 291.9375 170.882812 291.90625 170.84375 C 291.789062 170.714844 291.671875 170.585938 291.566406 170.453125 C 291.339844 170.167969 291.128906 169.875 290.933594 169.5625 C 290.566406 168.96875 290.257812 168.332031 289.953125 167.707031 C 289.941406 167.6875 289.917969 167.703125 289.921875 167.722656 C 290.046875 168.445312 290.332031 169.109375 290.710938 169.734375 C 290.839844 169.945312 290.976562 170.140625 291.113281 170.339844 C 290.613281 169.988281 290.128906 169.605469 289.667969 169.207031 C 289.550781 169.105469 289.441406 169.003906 289.324219 168.894531 C 289.230469 168.644531 289.144531 168.390625 289.066406 168.136719 C 288.902344 167.601562 288.792969 167.039062 288.691406 166.488281 C 288.683594 166.429688 288.59375 166.445312 288.59375 166.503906 C 288.566406 167.085938 288.644531 167.648438 288.78125 168.214844 C 288.796875 168.28125 288.820312 168.339844 288.835938 168.398438 C 288.554688 168.082031 288.3125 167.746094 288.136719 167.363281 C 287.726562 166.445312 288.148438 165.59375 289.070312 165.265625 C 290.039062 164.929688 291.1875 165.207031 292.167969 165.359375 C 293.132812 165.507812 294.09375 165.6875 295.042969 165.902344 C 295.117188 166.910156 295.21875 167.921875 295.355469 168.921875 C 294.769531 169.460938 294.203125 170.019531 293.65625 170.59375 C 293.375 170.882812 293.101562 171.175781 292.839844 171.476562 C 292.558594 171.304688 292.285156 171.132812 292.015625 170.957031 Z M 293.164062 178.652344 C 292.476562 178.871094 291.695312 179.066406 290.972656 178.921875 C 289.988281 178.722656 289.652344 177.769531 289.917969 176.859375 C 290 176.582031 290.117188 176.3125 290.265625 176.058594 C 290.449219 176.148438 290.648438 176.207031 290.867188 176.195312 C 291.667969 176.160156 291.914062 175.253906 291.773438 174.574219 C 291.773438 174.5625 291.773438 174.554688 291.769531 174.546875 C 291.746094 174.425781 291.714844 174.308594 291.667969 174.195312 C 292.105469 173.648438 292.546875 173.125 293.007812 172.597656 C 293.351562 172.800781 293.691406 172.988281 294.046875 173.167969 C 294.046875 173.210938 294.066406 173.253906 294.117188 173.273438 C 294.859375 173.605469 295.613281 173.921875 296.371094 174.226562 C 296.542969 174.90625 296.730469 175.585938 296.933594 176.253906 C 296.992188 176.457031 297.054688 176.65625 297.121094 176.855469 C 295.855469 177.5625 294.542969 178.222656 293.164062 178.652344 Z M 300.898438 182.566406 C 299.980469 182.074219 299.597656 180.964844 299.222656 180.050781 C 298.847656 179.128906 298.503906 178.199219 298.1875 177.261719 C 298.5 177.078125 298.804688 176.886719 299.109375 176.683594 C 299.148438 176.703125 299.195312 176.710938 299.230469 176.679688 C 299.660156 176.355469 300.09375 176.03125 300.515625 175.703125 C 300.535156 175.707031 300.550781 175.714844 300.570312 175.726562 C 301.660156 176.058594 302.757812 176.351562 303.863281 176.570312 C 303.859375 176.789062 303.851562 177.007812 303.835938 177.230469 C 303.835938 177.230469 303.835938 177.234375 303.835938 177.234375 C 303.722656 177.511719 303.585938 177.792969 303.425781 178.046875 C 303.339844 178.1875 303.246094 178.316406 303.144531 178.445312 C 303.144531 178.4375 303.140625 178.433594 303.136719 178.433594 C 303.121094 178.433594 303.121094 178.453125 303.128906 178.460938 C 302.855469 178.808594 302.546875 179.125 302.261719 179.460938 C 302.246094 179.476562 302.261719 179.515625 302.285156 179.503906 C 302.871094 179.261719 303.316406 178.753906 303.667969 178.242188 C 303.710938 178.175781 303.746094 178.113281 303.785156 178.046875 C 303.785156 178.046875 303.785156 178.054688 303.785156 178.054688 C 303.789062 178.058594 303.785156 178.058594 303.785156 178.058594 C 303.742188 178.59375 303.675781 179.128906 303.578125 179.660156 C 303.453125 179.933594 303.300781 180.199219 303.125 180.441406 C 302.761719 180.949219 302.28125 181.367188 301.8125 181.773438 C 301.789062 181.789062 301.8125 181.828125 301.839844 181.816406 C 302.460938 181.613281 302.957031 181.171875 303.363281 180.660156 C 303.007812 181.890625 302.28125 183.308594 300.898438 182.566406 Z M 310.761719 175.414062 C 310.414062 175.734375 309.992188 175.933594 309.539062 176.058594 C 309.480469 175.964844 309.402344 175.878906 309.316406 175.804688 C 308.929688 175.46875 308.390625 175.269531 307.871094 175.308594 C 307.625 175.328125 307.378906 175.386719 307.164062 175.527344 C 306.914062 175.699219 306.765625 175.945312 306.71875 176.238281 C 306.058594 176.210938 305.398438 176.160156 304.746094 176.078125 L 304.746094 176.058594 C 304.75 175.34375 304.738281 174.636719 304.695312 173.925781 C 304.734375 173.898438 304.761719 173.867188 304.753906 173.8125 C 304.691406 173.296875 304.625 172.769531 304.550781 172.25 C 305.261719 171.582031 305.941406 170.898438 306.589844 170.175781 C 306.632812 170.210938 306.679688 170.25 306.722656 170.285156 C 306.964844 170.515625 307.191406 170.769531 307.410156 171.027344 C 307.839844 171.527344 308.210938 172.101562 308.539062 172.683594 C 308.570312 172.738281 308.660156 172.699219 308.636719 172.640625 C 308.527344 172.316406 308.398438 171.996094 308.226562 171.695312 C 308.050781 171.390625 307.851562 171.101562 307.640625 170.828125 C 307.554688 170.714844 307.460938 170.609375 307.367188 170.5 C 307.367188 170.5 307.371094 170.5 307.371094 170.5 C 307.863281 170.769531 308.335938 171.050781 308.8125 171.339844 C 309.035156 171.582031 309.246094 171.839844 309.449219 172.101562 C 309.878906 172.652344 310.257812 173.253906 310.59375 173.863281 C 310.621094 173.90625 310.695312 173.878906 310.675781 173.832031 C 310.414062 173.160156 310.082031 172.550781 309.667969 171.972656 C 309.613281 171.898438 309.554688 171.832031 309.503906 171.757812 C 309.503906 171.757812 309.507812 171.765625 309.507812 171.765625 C 310.105469 172.117188 310.726562 172.507812 311.144531 173.042969 C 311.746094 173.820312 311.433594 174.792969 310.761719 175.414062 Z M 310.761719 175.414062 " fill-opacity="1" fill-rule="nonzero"/></g><path fill="#000000" d="M 300.3125 172.367188 C 300.457031 172.402344 300.605469 172.410156 300.746094 172.390625 C 300.914062 172.363281 301.09375 172.230469 301.199219 172.101562 C 301.433594 171.832031 301.53125 171.511719 301.542969 171.160156 C 301.5625 170.484375 301.238281 169.792969 300.703125 169.394531 C 300.140625 168.96875 299.296875 168.96875 298.734375 169.402344 C 298.203125 169.820312 297.964844 170.542969 298.117188 171.203125 C 298.332031 172.132812 299.425781 172.835938 300.3125 172.367188 Z M 298.972656 169.957031 C 299.0625 169.863281 299.117188 169.832031 299.246094 169.757812 C 299.285156 169.734375 299.304688 169.730469 299.378906 169.707031 C 299.410156 169.699219 299.441406 169.691406 299.480469 169.683594 C 299.496094 169.675781 299.507812 169.675781 299.523438 169.671875 C 299.53125 169.671875 299.539062 169.667969 299.542969 169.667969 C 299.542969 169.667969 299.546875 169.667969 299.546875 169.667969 C 299.691406 169.648438 299.839844 169.65625 299.960938 169.683594 C 300.019531 169.691406 300.078125 169.714844 300.132812 169.730469 C 300.175781 169.746094 300.128906 169.726562 300.183594 169.75 C 300.214844 169.769531 300.246094 169.785156 300.277344 169.804688 C 300.394531 169.875 300.425781 169.902344 300.53125 170.007812 C 300.550781 170.03125 300.570312 170.058594 300.59375 170.082031 C 300.628906 170.125 300.597656 170.089844 300.625 170.121094 C 300.660156 170.175781 300.699219 170.226562 300.726562 170.285156 C 300.742188 170.3125 300.757812 170.347656 300.765625 170.378906 C 300.792969 170.4375 300.773438 170.378906 300.789062 170.421875 C 300.808594 170.480469 300.832031 170.542969 300.851562 170.609375 C 300.867188 170.671875 300.882812 170.738281 300.894531 170.800781 C 300.894531 170.8125 300.894531 170.8125 300.898438 170.816406 C 300.898438 170.820312 300.898438 170.820312 300.898438 170.828125 C 300.90625 170.863281 300.90625 170.902344 300.910156 170.941406 C 300.914062 171.015625 300.910156 171.085938 300.90625 171.160156 C 300.90625 171.175781 300.898438 171.1875 300.898438 171.203125 C 300.898438 171.203125 300.898438 171.207031 300.898438 171.207031 C 300.894531 171.238281 300.886719 171.265625 300.878906 171.296875 C 300.867188 171.332031 300.863281 171.367188 300.851562 171.398438 C 300.847656 171.410156 300.835938 171.449219 300.824219 171.46875 C 300.816406 171.492188 300.792969 171.539062 300.800781 171.539062 C 300.800781 171.542969 300.792969 171.5625 300.789062 171.570312 C 300.78125 171.585938 300.761719 171.628906 300.757812 171.640625 C 300.726562 171.699219 300.6875 171.753906 300.652344 171.808594 C 300.644531 171.816406 300.613281 171.859375 300.613281 171.867188 C 300.59375 171.894531 300.570312 171.914062 300.550781 171.933594 C 300.457031 172.046875 300.394531 172.164062 300.289062 172.265625 C 299.886719 172.261719 299.480469 172.054688 299.167969 171.8125 C 299.070312 171.738281 298.929688 171.605469 298.878906 171.527344 C 298.84375 171.476562 298.804688 171.421875 298.773438 171.367188 C 298.757812 171.335938 298.742188 171.308594 298.726562 171.277344 C 298.726562 171.277344 298.71875 171.265625 298.714844 171.253906 C 298.710938 171.246094 298.699219 171.207031 298.699219 171.207031 C 298.550781 170.761719 298.652344 170.277344 298.972656 169.957031 Z M 298.972656 169.957031 " fill-opacity="1" fill-rule="nonzero"/><path fill="#000000" d="M 310.210938 166.25 C 310.09375 166.449219 309.960938 166.640625 309.820312 166.820312 C 309.6875 166.984375 309.527344 167.132812 309.40625 167.3125 C 309.308594 167.460938 309.503906 167.648438 309.652344 167.558594 C 310.019531 167.320312 310.308594 166.855469 310.519531 166.476562 C 310.753906 166.0625 310.925781 165.609375 311.039062 165.148438 C 311.257812 164.222656 311.222656 163.242188 310.917969 162.339844 C 310.859375 162.179688 310.609375 162.242188 310.65625 162.410156 C 310.921875 163.265625 310.9375 164.183594 310.707031 165.050781 C 310.589844 165.476562 310.425781 165.875 310.210938 166.25 Z M 310.210938 166.25 " fill-opacity="1" fill-rule="nonzero"/><path fill="#000000" d="M 309.121094 167.949219 C 309.097656 167.957031 309.070312 167.964844 309.042969 167.976562 C 308.992188 167.996094 308.964844 168.035156 308.933594 168.082031 C 308.894531 168.136719 308.859375 168.1875 308.828125 168.242188 C 308.757812 168.355469 308.683594 168.460938 308.605469 168.5625 C 308.523438 168.671875 308.425781 168.761719 308.34375 168.863281 C 308.253906 168.964844 308.15625 169.066406 308.058594 169.15625 C 308.011719 169.199219 308.074219 169.269531 308.125 169.25 C 308.253906 169.191406 308.375 169.121094 308.488281 169.046875 C 308.613281 168.96875 308.71875 168.863281 308.816406 168.761719 C 308.921875 168.65625 309.015625 168.542969 309.101562 168.425781 C 309.144531 168.371094 309.175781 168.3125 309.207031 168.253906 C 309.234375 168.210938 309.253906 168.167969 309.25 168.113281 C 309.25 168.078125 309.234375 168.042969 309.230469 168.007812 C 309.210938 167.964844 309.164062 167.9375 309.121094 167.949219 Z M 309.121094 167.949219 " fill-opacity="1" fill-rule="nonzero"/><path fill="#000000" d="M 300.269531 158.222656 C 300.414062 158.324219 300.546875 158.4375 300.671875 158.554688 C 300.921875 158.785156 301.15625 159.035156 301.359375 159.316406 C 301.757812 159.871094 301.992188 160.511719 302.28125 161.128906 C 302.292969 161.152344 302.324219 161.140625 302.324219 161.117188 C 302.359375 160.402344 302.023438 159.707031 301.628906 159.128906 C 301.425781 158.828125 301.195312 158.542969 300.925781 158.304688 C 300.800781 158.183594 300.667969 158.078125 300.53125 157.976562 C 300.398438 157.875 300.21875 157.714844 300.050781 157.6875 C 299.933594 157.671875 299.78125 157.792969 299.875 157.917969 C 299.976562 158.050781 300.140625 158.125 300.269531 158.222656 Z M 300.269531 158.222656 " fill-opacity="1" fill-rule="nonzero"/><g clip-path="url(#e7f8f96549)"><path fill="#000000" d="M 298.566406 157.09375 C 298.652344 157.105469 298.730469 157.125 298.808594 157.152344 C 298.894531 157.183594 298.980469 157.199219 299.0625 157.234375 C 299.101562 157.25 299.105469 157.25 299.152344 157.273438 C 299.191406 157.296875 299.230469 157.316406 299.269531 157.339844 C 299.285156 157.351562 299.304688 157.355469 299.320312 157.367188 C 299.332031 157.371094 299.335938 157.378906 299.328125 157.367188 C 299.351562 157.378906 299.378906 157.394531 299.40625 157.402344 C 299.460938 157.417969 299.507812 157.402344 299.554688 157.386719 C 299.585938 157.378906 299.601562 157.351562 299.605469 157.316406 C 299.613281 157.269531 299.613281 157.214844 299.585938 157.171875 C 299.554688 157.125 299.492188 157.070312 299.441406 157.046875 C 299.351562 156.996094 299.253906 156.960938 299.152344 156.9375 C 299.0625 156.917969 298.957031 156.890625 298.863281 156.902344 C 298.761719 156.910156 298.667969 156.933594 298.574219 156.964844 C 298.507812 156.980469 298.492188 157.082031 298.566406 157.09375 Z M 298.566406 157.09375 " fill-opacity="1" fill-rule="nonzero"/></g><path fill="#000000" d="M 294.554688 179.53125 C 294.210938 179.59375 293.910156 179.761719 293.582031 179.875 C 293.238281 179.992188 292.890625 180.070312 292.53125 180.128906 C 292.175781 180.1875 291.816406 180.226562 291.453125 180.265625 C 291.101562 180.296875 290.753906 180.316406 290.421875 180.429688 C 290.402344 180.433594 290.402344 180.46875 290.421875 180.472656 C 290.769531 180.570312 291.128906 180.570312 291.488281 180.558594 C 291.867188 180.546875 292.246094 180.519531 292.621094 180.460938 C 292.992188 180.410156 293.355469 180.324219 293.710938 180.203125 C 294.058594 180.085938 294.394531 179.964844 294.632812 179.664062 C 294.683594 179.605469 294.636719 179.515625 294.554688 179.53125 Z M 294.554688 179.53125 " fill-opacity="1" fill-rule="nonzero"/><path fill="#000000" d="M 295.960938 178.988281 C 295.851562 179.070312 295.734375 179.144531 295.613281 179.203125 C 295.585938 179.21875 295.554688 179.230469 295.527344 179.246094 C 295.511719 179.253906 295.496094 179.261719 295.480469 179.269531 C 295.480469 179.269531 295.476562 179.269531 295.476562 179.269531 C 295.472656 179.269531 295.449219 179.277344 295.457031 179.277344 C 295.417969 179.296875 295.375 179.304688 295.339844 179.328125 C 295.308594 179.34375 295.28125 179.363281 295.253906 179.378906 C 295.203125 179.414062 295.117188 179.492188 295.128906 179.566406 C 295.136719 179.648438 295.265625 179.675781 295.332031 179.667969 C 295.371094 179.664062 295.402344 179.660156 295.4375 179.652344 C 295.488281 179.644531 295.527344 179.625 295.570312 179.605469 C 295.632812 179.574219 295.691406 179.542969 295.75 179.507812 C 295.886719 179.429688 296.019531 179.332031 296.144531 179.226562 C 296.199219 179.175781 296.199219 179.085938 296.15625 179.03125 C 296.109375 178.980469 296.019531 178.945312 295.960938 178.988281 Z M 295.960938 178.988281 " fill-opacity="1" fill-rule="nonzero"/><path fill="#000000" d="M 305.261719 178.796875 C 305.324219 179.507812 305.25 180.230469 305.054688 180.917969 C 304.960938 181.265625 304.828125 181.601562 304.664062 181.921875 C 304.535156 182.183594 304.253906 182.484375 304.253906 182.785156 C 304.253906 182.828125 304.296875 182.859375 304.332031 182.84375 C 304.640625 182.746094 304.8125 182.3125 304.945312 182.046875 C 305.109375 181.710938 305.246094 181.355469 305.339844 180.992188 C 305.535156 180.265625 305.5625 179.507812 305.453125 178.765625 C 305.429688 178.664062 305.25 178.691406 305.261719 178.796875 Z M 305.261719 178.796875 " fill-opacity="1" fill-rule="nonzero"/><g clip-path="url(#0e191f2922)"><path fill="#000000" d="M 303.886719 183.117188 C 303.851562 183.117188 303.816406 183.117188 303.785156 183.117188 C 303.746094 183.117188 303.714844 183.128906 303.679688 183.136719 C 303.636719 183.148438 303.59375 183.160156 303.558594 183.179688 C 303.527344 183.195312 303.496094 183.214844 303.460938 183.230469 C 303.398438 183.261719 303.339844 183.292969 303.277344 183.324219 C 303.261719 183.332031 303.246094 183.339844 303.234375 183.347656 C 303.210938 183.363281 303.1875 183.382812 303.167969 183.410156 C 303.144531 183.4375 303.128906 183.464844 303.109375 183.484375 C 303.074219 183.535156 303.121094 183.605469 303.179688 183.605469 C 303.210938 183.605469 303.246094 183.605469 303.277344 183.605469 C 303.324219 183.605469 303.363281 183.582031 303.410156 183.5625 C 303.472656 183.527344 303.535156 183.496094 303.605469 183.464844 C 303.636719 183.449219 303.667969 183.4375 303.699219 183.417969 C 303.730469 183.398438 303.757812 183.375 303.785156 183.351562 C 303.820312 183.324219 303.851562 183.296875 303.878906 183.265625 C 303.902344 183.238281 303.917969 183.214844 303.9375 183.191406 C 303.953125 183.164062 303.921875 183.117188 303.886719 183.117188 Z M 303.886719 183.117188 " fill-opacity="1" fill-rule="nonzero"/></g><path fill="#000000" d="M 308.328125 162.722656 C 308.363281 162.859375 308.421875 162.984375 308.457031 163.121094 C 308.527344 163.382812 308.570312 163.65625 308.5625 163.933594 C 308.5625 164.007812 308.605469 164.074219 308.664062 164.109375 C 308.734375 164.152344 308.800781 164.148438 308.871094 164.109375 C 308.933594 164.078125 308.96875 164.003906 308.96875 163.933594 C 308.96875 163.617188 308.921875 163.300781 308.8125 163.007812 C 308.753906 162.859375 308.695312 162.703125 308.59375 162.578125 C 308.554688 162.519531 308.503906 162.46875 308.453125 162.414062 C 308.398438 162.359375 308.351562 162.328125 308.277344 162.304688 C 308.253906 162.296875 308.226562 162.324219 308.226562 162.34375 C 308.226562 162.417969 308.238281 162.472656 308.261719 162.542969 C 308.289062 162.601562 308.3125 162.664062 308.328125 162.722656 Z M 308.328125 162.722656 " fill-opacity="1" fill-rule="nonzero"/><path fill="#000000" d="M 300.230469 170.449219 C 300.234375 170.496094 300.246094 170.53125 300.253906 170.574219 C 300.261719 170.59375 300.265625 170.613281 300.265625 170.628906 C 300.265625 170.640625 300.269531 170.644531 300.269531 170.65625 C 300.269531 170.660156 300.269531 170.660156 300.269531 170.660156 C 300.277344 170.738281 300.28125 170.8125 300.28125 170.886719 C 300.28125 170.90625 300.28125 170.925781 300.277344 170.941406 C 300.277344 170.949219 300.277344 170.957031 300.277344 170.964844 C 300.269531 171.003906 300.261719 171.042969 300.25 171.078125 C 300.230469 171.164062 300.28125 171.273438 300.367188 171.292969 C 300.449219 171.316406 300.554688 171.265625 300.578125 171.175781 C 300.578125 171.171875 300.578125 171.164062 300.582031 171.160156 C 300.582031 171.160156 300.582031 171.152344 300.582031 171.152344 C 300.625 170.972656 300.628906 170.785156 300.570312 170.609375 C 300.539062 170.515625 300.507812 170.414062 300.441406 170.351562 C 300.382812 170.292969 300.3125 170.246094 300.246094 170.195312 C 300.203125 170.167969 300.164062 170.222656 300.183594 170.261719 C 300.214844 170.320312 300.222656 170.382812 300.230469 170.449219 Z M 300.519531 170.976562 C 300.515625 170.976562 300.515625 170.972656 300.507812 170.972656 C 300.53125 170.976562 300.53125 170.984375 300.519531 170.976562 Z M 300.472656 170.949219 C 300.464844 170.949219 300.460938 170.949219 300.457031 170.949219 C 300.441406 170.945312 300.441406 170.941406 300.472656 170.949219 Z M 300.472656 170.949219 " fill-opacity="1" fill-rule="nonzero"/><g fill="#000000" fill-opacity="1"><g transform="translate(91.938186, 283.273633)"><g><path d="M 14.609375 -16.796875 C 13.148438 -16.796875 11.890625 -16.253906 10.828125 -15.171875 C 9.773438 -14.097656 9.25 -12.800781 9.25 -11.28125 C 9.25 -9.726562 9.773438 -8.410156 10.828125 -7.328125 C 11.890625 -6.242188 13.148438 -5.703125 14.609375 -5.703125 C 15.304688 -5.703125 15.96875 -5.789062 16.59375 -5.96875 C 17.226562 -6.144531 17.691406 -6.320312 17.984375 -6.5 L 18.390625 -6.75 L 21.015625 -1.359375 C 20.804688 -1.210938 20.519531 -1.03125 20.15625 -0.8125 C 19.789062 -0.59375 18.957031 -0.296875 17.65625 0.078125 C 16.351562 0.460938 14.957031 0.65625 13.46875 0.65625 C 10.164062 0.65625 7.265625 -0.503906 4.765625 -2.828125 C 2.265625 -5.148438 1.015625 -7.9375 1.015625 -11.1875 C 1.015625 -14.46875 2.265625 -17.285156 4.765625 -19.640625 C 7.265625 -21.992188 10.164062 -23.171875 13.46875 -23.171875 C 14.957031 -23.171875 16.332031 -22.992188 17.59375 -22.640625 C 18.851562 -22.285156 19.742188 -21.9375 20.265625 -21.59375 L 21.015625 -21.0625 L 18.390625 -15.75 C 17.421875 -16.445312 16.160156 -16.796875 14.609375 -16.796875 Z M 14.609375 -16.796875 "/></g></g></g><g fill="#000000" fill-opacity="1"><g transform="translate(111.286882, 283.273633)"><g><path d="M 2.625 0 L 2.625 -37.734375 L 10.390625 -37.734375 L 10.390625 -20.140625 L 10.484375 -20.140625 C 12.503906 -22.160156 14.65625 -23.171875 16.9375 -23.171875 C 18.050781 -23.171875 19.15625 -23.019531 20.25 -22.71875 C 21.34375 -22.425781 22.394531 -21.972656 23.40625 -21.359375 C 24.414062 -20.753906 25.234375 -19.882812 25.859375 -18.75 C 26.492188 -17.625 26.8125 -16.316406 26.8125 -14.828125 L 26.8125 0 L 19.046875 0 L 19.046875 -12.71875 C 19.046875 -13.894531 18.671875 -14.921875 17.921875 -15.796875 C 17.171875 -16.671875 16.195312 -17.109375 15 -17.109375 C 13.832031 -17.109375 12.769531 -16.65625 11.8125 -15.75 C 10.863281 -14.84375 10.390625 -13.832031 10.390625 -12.71875 L 10.390625 0 Z M 2.625 0 "/></g></g></g><g fill="#000000" fill-opacity="1"><g transform="translate(138.094334, 283.273633)"><g><path d="M 25.40625 -10.171875 L 9.078125 -10.171875 C 9.078125 -8.597656 9.585938 -7.429688 10.609375 -6.671875 C 11.640625 -5.910156 12.753906 -5.53125 13.953125 -5.53125 C 15.210938 -5.53125 16.207031 -5.695312 16.9375 -6.03125 C 17.664062 -6.363281 18.5 -7.03125 19.4375 -8.03125 L 25.046875 -5.21875 C 22.710938 -1.300781 18.820312 0.65625 13.375 0.65625 C 9.988281 0.65625 7.082031 -0.503906 4.65625 -2.828125 C 2.226562 -5.148438 1.015625 -7.945312 1.015625 -11.21875 C 1.015625 -14.5 2.226562 -17.3125 4.65625 -19.65625 C 7.082031 -22 9.988281 -23.171875 13.375 -23.171875 C 16.945312 -23.171875 19.851562 -22.140625 22.09375 -20.078125 C 24.332031 -18.015625 25.453125 -15.066406 25.453125 -11.234375 C 25.453125 -10.703125 25.4375 -10.347656 25.40625 -10.171875 Z M 9.296875 -14.484375 L 17.859375 -14.484375 C 17.679688 -15.648438 17.21875 -16.546875 16.46875 -17.171875 C 15.726562 -17.804688 14.769531 -18.125 13.59375 -18.125 C 12.3125 -18.125 11.289062 -17.785156 10.53125 -17.109375 C 9.769531 -16.441406 9.359375 -15.566406 9.296875 -14.484375 Z M 9.296875 -14.484375 "/></g></g></g><g fill="#000000" fill-opacity="1"><g transform="translate(162.357032, 283.273633)"><g><path d="M 2.625 0 L 2.625 -22.515625 L 10.390625 -22.515625 L 10.390625 -20.140625 L 10.484375 -20.140625 C 12.503906 -22.160156 14.65625 -23.171875 16.9375 -23.171875 C 18.570312 -23.171875 20.101562 -22.832031 21.53125 -22.15625 C 22.96875 -21.476562 24.054688 -20.441406 24.796875 -19.046875 C 27.078125 -21.796875 29.5625 -23.171875 32.25 -23.171875 C 34.644531 -23.171875 36.703125 -22.492188 38.421875 -21.140625 C 40.148438 -19.796875 41.015625 -17.691406 41.015625 -14.828125 L 41.015625 0 L 33.25 0 L 33.25 -12.71875 C 33.25 -13.914062 32.921875 -14.914062 32.265625 -15.71875 C 31.609375 -16.53125 30.625 -16.9375 29.3125 -16.9375 C 28.164062 -16.9375 27.289062 -16.59375 26.6875 -15.90625 C 26.09375 -15.21875 25.765625 -14.390625 25.703125 -13.421875 L 25.703125 0 L 17.9375 0 L 17.9375 -12.71875 C 17.9375 -13.914062 17.609375 -14.914062 16.953125 -15.71875 C 16.296875 -16.53125 15.3125 -16.9375 14 -16.9375 C 12.800781 -16.9375 11.898438 -16.5625 11.296875 -15.8125 C 10.691406 -15.070312 10.390625 -14.1875 10.390625 -13.15625 L 10.390625 0 Z M 2.625 0 "/></g></g></g><g fill="#ffffff" fill-opacity="1"><g transform="translate(203.383491, 283.273633)"><g/></g></g><g fill="#ff66c4" fill-opacity="1"><g transform="translate(213.168646, 283.273633)"><g><path d="M 1.625 5.53125 L 7.984375 2.40625 C 9.148438 4.34375 11.179688 5.3125 14.078125 5.3125 C 15.429688 5.3125 16.679688 4.878906 17.828125 4.015625 C 18.984375 3.148438 19.5625 1.828125 19.5625 0.046875 L 19.5625 -1.625 C 18.1875 -0.101562 15.734375 0.65625 12.203125 0.65625 C 8.953125 0.65625 6.273438 -0.488281 4.171875 -2.78125 C 2.066406 -5.082031 1.015625 -7.898438 1.015625 -11.234375 C 1.015625 -14.566406 2.066406 -17.390625 4.171875 -19.703125 C 6.273438 -22.015625 8.953125 -23.171875 12.203125 -23.171875 C 15.097656 -23.171875 17.507812 -22.273438 19.4375 -20.484375 L 19.5625 -20.484375 L 19.5625 -22.515625 L 27.328125 -22.515625 L 27.328125 0.609375 C 27.328125 4.265625 26.113281 7.085938 23.6875 9.078125 C 21.257812 11.066406 18.054688 12.0625 14.078125 12.0625 C 7.648438 12.0625 3.5 9.882812 1.625 5.53125 Z M 10.765625 -15.046875 C 9.753906 -14.054688 9.25 -12.785156 9.25 -11.234375 C 9.25 -9.679688 9.734375 -8.414062 10.703125 -7.4375 C 11.671875 -6.457031 12.941406 -5.96875 14.515625 -5.96875 C 16.035156 -5.96875 17.285156 -6.460938 18.265625 -7.453125 C 19.253906 -8.453125 19.75 -9.710938 19.75 -11.234375 C 19.75 -12.785156 19.242188 -14.054688 18.234375 -15.046875 C 17.222656 -16.046875 15.984375 -16.546875 14.515625 -16.546875 C 13.023438 -16.546875 11.773438 -16.046875 10.765625 -15.046875 Z M 10.765625 -15.046875 "/></g></g></g><g fill="#ff66c4" fill-opacity="1"><g transform="translate(240.941349, 283.273633)"><g><path d="M 4.765625 -2.671875 C 2.265625 -4.898438 1.015625 -7.753906 1.015625 -11.234375 C 1.015625 -14.710938 2.3125 -17.570312 4.90625 -19.8125 C 7.507812 -22.050781 10.726562 -23.171875 14.5625 -23.171875 C 18.332031 -23.171875 21.515625 -22.039062 24.109375 -19.78125 C 26.703125 -17.53125 28 -14.679688 28 -11.234375 C 28 -7.785156 26.734375 -4.941406 24.203125 -2.703125 C 21.671875 -0.460938 18.457031 0.65625 14.5625 0.65625 C 10.53125 0.65625 7.265625 -0.453125 4.765625 -2.671875 Z M 10.765625 -15.046875 C 9.753906 -14.054688 9.25 -12.785156 9.25 -11.234375 C 9.25 -9.679688 9.734375 -8.414062 10.703125 -7.4375 C 11.671875 -6.457031 12.941406 -5.96875 14.515625 -5.96875 C 16.035156 -5.96875 17.285156 -6.460938 18.265625 -7.453125 C 19.253906 -8.453125 19.75 -9.710938 19.75 -11.234375 C 19.75 -12.785156 19.242188 -14.054688 18.234375 -15.046875 C 17.222656 -16.046875 15.984375 -16.546875 14.515625 -16.546875 C 13.023438 -16.546875 11.773438 -16.046875 10.765625 -15.046875 Z M 10.765625 -15.046875 "/></g></g></g><g fill="#ff66c4" fill-opacity="1"><g transform="translate(267.748801, 283.273633)"><g><path d="M 4.828125 -11.84375 L 3.765625 -37.734375 L 11.546875 -37.734375 L 10.484375 -11.84375 Z M 7.640625 -9.390625 C 9.035156 -9.390625 10.222656 -8.898438 11.203125 -7.921875 C 12.191406 -6.941406 12.6875 -5.75 12.6875 -4.34375 C 12.6875 -2.96875 12.191406 -1.789062 11.203125 -0.8125 C 10.222656 0.164062 9.035156 0.65625 7.640625 0.65625 C 6.265625 0.65625 5.082031 0.164062 4.09375 -0.8125 C 3.113281 -1.789062 2.625 -2.96875 2.625 -4.34375 C 2.625 -5.75 3.113281 -6.941406 4.09375 -7.921875 C 5.082031 -8.898438 6.265625 -9.390625 7.640625 -9.390625 Z M 7.640625 -9.390625 "/></g></g></g><g fill="#000000" fill-opacity="1"><g transform="translate(74.144691, 322.070837)"><g><path d="M 0.484375 -7.734375 L 4.890625 -7.734375 C 5.679688 -7.734375 6.285156 -7.539062 6.703125 -7.15625 C 7.128906 -6.78125 7.34375 -6.25 7.34375 -5.5625 C 7.34375 -5.175781 7.273438 -4.84375 7.140625 -4.5625 C 7.003906 -4.289062 6.816406 -4.078125 6.578125 -3.921875 C 6.921875 -3.773438 7.175781 -3.578125 7.34375 -3.328125 C 7.519531 -3.085938 7.609375 -2.75 7.609375 -2.3125 C 7.609375 -1.582031 7.375 -1.015625 6.90625 -0.609375 C 6.445312 -0.203125 5.800781 0 4.96875 0 L 0.484375 0 Z M 4.203125 -4.703125 C 4.660156 -4.703125 4.890625 -4.910156 4.890625 -5.328125 C 4.890625 -5.742188 4.644531 -5.953125 4.15625 -5.953125 L 2.921875 -5.953125 L 2.921875 -4.703125 Z M 4.25 -1.765625 C 4.5 -1.765625 4.679688 -1.816406 4.796875 -1.921875 C 4.921875 -2.035156 4.984375 -2.207031 4.984375 -2.4375 C 4.984375 -2.851562 4.726562 -3.0625 4.21875 -3.0625 L 2.921875 -3.0625 L 2.921875 -1.765625 Z M 4.25 -1.765625 "/></g></g></g><g fill="#000000" fill-opacity="1"><g transform="translate(84.392703, 322.070837)"><g><path d="M 0.90625 -10.265625 L 2.625 -10.265625 L 2.625 -8.6875 L 0.90625 -8.6875 Z M 0.484375 -7.734375 L 3.0625 -7.734375 L 3.0625 0 L 0.484375 0 Z M 0.484375 -7.734375 "/></g></g></g><g fill="#000000" fill-opacity="1"><g transform="translate(90.332713, 322.070837)"><g><path d="M 0.484375 -7.734375 L 4.65625 -7.734375 C 5.59375 -7.734375 6.300781 -7.472656 6.78125 -6.953125 C 7.257812 -6.441406 7.5 -5.757812 7.5 -4.90625 C 7.5 -4.40625 7.375 -3.957031 7.125 -3.5625 C 6.875 -3.164062 6.535156 -2.84375 6.109375 -2.59375 C 6.265625 -2.46875 6.390625 -2.289062 6.484375 -2.0625 L 7.390625 0 L 4.703125 0 L 3.90625 -1.78125 C 3.851562 -1.90625 3.789062 -1.988281 3.71875 -2.03125 C 3.65625 -2.082031 3.5625 -2.109375 3.4375 -2.109375 L 3.0625 -2.109375 L 3.0625 0 L 0.484375 0 Z M 4.015625 -4.109375 C 4.285156 -4.109375 4.492188 -4.175781 4.640625 -4.3125 C 4.796875 -4.445312 4.875 -4.644531 4.875 -4.90625 C 4.875 -5.445312 4.601562 -5.71875 4.0625 -5.71875 L 3.0625 -5.71875 L 3.0625 -4.109375 Z M 4.015625 -4.109375 "/></g></g></g><g fill="#000000" fill-opacity="1"><g transform="translate(100.472727, 322.070837)"><g/></g></g><g fill="#000000" fill-opacity="1"><g transform="translate(106.712732, 322.070837)"><g><path d="M 0.484375 -7.734375 L 2.953125 -7.734375 L 4.703125 -4.15625 L 6.4375 -7.734375 L 8.90625 -7.734375 L 8.90625 0 L 6.328125 0 L 6.328125 -3.28125 L 5.359375 -1.3125 L 4.015625 -1.3125 L 3.0625 -3.28125 L 3.0625 0 L 0.484375 0 Z M 0.484375 -7.734375 "/></g></g></g><g fill="#000000" fill-opacity="1"><g transform="translate(118.496747, 322.070837)"><g><path d="M 1.953125 -10.171875 L 3.6875 -10.171875 L 3.6875 -8.59375 L 1.953125 -8.59375 Z M 4.671875 -10.171875 L 6.390625 -10.171875 L 6.390625 -8.59375 L 4.671875 -8.59375 Z M 4.171875 0.125 C 3.441406 0.125 2.789062 0.00390625 2.21875 -0.234375 C 1.65625 -0.472656 1.210938 -0.828125 0.890625 -1.296875 C 0.578125 -1.773438 0.421875 -2.347656 0.421875 -3.015625 L 0.421875 -7.734375 L 3 -7.734375 L 3 -3.3125 C 3 -2.476562 3.390625 -2.0625 4.171875 -2.0625 C 4.960938 -2.0625 5.359375 -2.476562 5.359375 -3.3125 L 5.359375 -7.734375 L 7.9375 -7.734375 L 7.9375 -3.015625 C 7.9375 -2.347656 7.773438 -1.773438 7.453125 -1.296875 C 7.128906 -0.828125 6.6875 -0.472656 6.125 -0.234375 C 5.5625 0.00390625 4.910156 0.125 4.171875 0.125 Z M 4.171875 0.125 "/></g></g></g><g fill="#000000" fill-opacity="1"><g transform="translate(129.248756, 322.070837)"><g><path d="M 0.484375 -7.734375 L 3.0625 -7.734375 L 3.0625 -5.03125 L 5.359375 -5.03125 L 5.359375 -7.734375 L 7.9375 -7.734375 L 7.9375 0 L 5.359375 0 L 5.359375 -2.703125 L 3.0625 -2.703125 L 3.0625 0 L 0.484375 0 Z M 0.484375 -7.734375 "/></g></g></g><g fill="#000000" fill-opacity="1"><g transform="translate(140.060767, 322.070837)"><g><path d="M 0.484375 -7.734375 L 6.484375 -7.734375 L 6.484375 -5.8125 L 3.0625 -5.8125 L 3.0625 -4.84375 L 6.046875 -4.84375 L 6.046875 -2.875 L 3.0625 -2.875 L 3.0625 -1.90625 L 6.484375 -1.90625 L 6.484375 0 L 0.484375 0 Z M 0.484375 -7.734375 "/></g></g></g><g fill="#000000" fill-opacity="1"><g transform="translate(149.132773, 322.070837)"><g><path d="M 0.484375 -7.734375 L 2.65625 -7.734375 L 5.203125 -4.15625 L 5.203125 -7.734375 L 7.78125 -7.734375 L 7.78125 0 L 5.578125 0 L 3.0625 -3.546875 L 3.0625 0 L 0.484375 0 Z M 0.484375 -7.734375 "/></g></g></g><g fill="#000000" fill-opacity="1"><g transform="translate(159.78879, 322.070837)"><g><path d="M 0.484375 -7.734375 L 4.046875 -7.734375 C 5.296875 -7.734375 6.253906 -7.421875 6.921875 -6.796875 C 7.585938 -6.171875 7.921875 -5.175781 7.921875 -3.8125 C 7.921875 -1.269531 6.628906 0 4.046875 0 L 0.484375 0 Z M 3.734375 -1.96875 C 4.085938 -1.96875 4.375 -2.015625 4.59375 -2.109375 C 4.820312 -2.210938 4.992188 -2.398438 5.109375 -2.671875 C 5.234375 -2.941406 5.296875 -3.320312 5.296875 -3.8125 C 5.296875 -4.3125 5.238281 -4.691406 5.125 -4.953125 C 5.007812 -5.222656 4.84375 -5.410156 4.625 -5.515625 C 4.40625 -5.617188 4.109375 -5.671875 3.734375 -5.671875 L 3.0625 -5.671875 L 3.0625 -1.96875 Z M 3.734375 -1.96875 "/></g></g></g><g fill="#000000" fill-opacity="1"><g transform="translate(170.348802, 322.070837)"><g><path d="M 0.90625 -10.265625 L 2.625 -10.265625 L 2.625 -8.6875 L 0.90625 -8.6875 Z M 0.484375 -7.734375 L 3.0625 -7.734375 L 3.0625 0 L 0.484375 0 Z M 0.484375 -7.734375 "/></g></g></g><g fill="#000000" fill-opacity="1"><g transform="translate(176.288811, 322.070837)"><g><path d="M 3.078125 0.125 C 2.546875 0.125 2.035156 0.0820312 1.546875 0 C 1.066406 -0.09375 0.660156 -0.222656 0.328125 -0.390625 L 0.328125 -2.40625 C 0.703125 -2.226562 1.113281 -2.082031 1.5625 -1.96875 C 2.019531 -1.851562 2.4375 -1.796875 2.8125 -1.796875 C 3.144531 -1.796875 3.390625 -1.828125 3.546875 -1.890625 C 3.710938 -1.960938 3.796875 -2.082031 3.796875 -2.25 C 3.796875 -2.40625 3.71875 -2.523438 3.5625 -2.609375 C 3.414062 -2.691406 3.132812 -2.800781 2.71875 -2.9375 C 2.601562 -2.96875 2.453125 -3.015625 2.265625 -3.078125 C 1.742188 -3.253906 1.335938 -3.441406 1.046875 -3.640625 C 0.765625 -3.847656 0.554688 -4.097656 0.421875 -4.390625 C 0.296875 -4.679688 0.234375 -5.039062 0.234375 -5.46875 C 0.234375 -7.050781 1.335938 -7.84375 3.546875 -7.84375 C 3.929688 -7.84375 4.359375 -7.804688 4.828125 -7.734375 C 5.304688 -7.660156 5.707031 -7.578125 6.03125 -7.484375 L 6.03125 -5.453125 C 5.28125 -5.753906 4.59375 -5.90625 3.96875 -5.90625 C 3.625 -5.90625 3.351562 -5.875 3.15625 -5.8125 C 2.96875 -5.757812 2.875 -5.65625 2.875 -5.5 C 2.875 -5.394531 2.914062 -5.304688 3 -5.234375 C 3.082031 -5.171875 3.203125 -5.113281 3.359375 -5.0625 C 3.515625 -5.019531 3.785156 -4.945312 4.171875 -4.84375 C 4.785156 -4.675781 5.253906 -4.472656 5.578125 -4.234375 C 5.910156 -3.992188 6.132812 -3.71875 6.25 -3.40625 C 6.375 -3.09375 6.4375 -2.710938 6.4375 -2.265625 C 6.4375 -1.523438 6.148438 -0.941406 5.578125 -0.515625 C 5.015625 -0.0859375 4.179688 0.125 3.078125 0.125 Z M 3.078125 0.125 "/></g></g></g><g fill="#000000" fill-opacity="1"><g transform="translate(185.372822, 322.070837)"><g><path d="M 0.484375 -7.734375 L 3.0625 -7.734375 L 3.0625 -1.96875 L 6.375 -1.96875 L 6.375 0 L 0.484375 0 Z M 0.484375 -7.734375 "/></g></g></g><g fill="#000000" fill-opacity="1"><g transform="translate(194.144832, 322.070837)"><g><path d="M 0.90625 -10.265625 L 2.625 -10.265625 L 2.625 -8.6875 L 0.90625 -8.6875 Z M 0.484375 -7.734375 L 3.0625 -7.734375 L 3.0625 0 L 0.484375 0 Z M 0.484375 -7.734375 "/></g></g></g><g fill="#000000" fill-opacity="1"><g transform="translate(200.084842, 322.070837)"><g><path d="M 0.484375 -7.734375 L 3.0625 -7.734375 L 3.0625 -5.28125 L 5.078125 -7.734375 L 7.984375 -7.734375 L 5.3125 -4.53125 L 8.203125 0 L 5.46875 0 L 3.734375 -2.90625 L 3.0625 -2.125 L 3.0625 0 L 0.484375 0 Z M 0.484375 -7.734375 "/></g></g></g><g fill="#000000" fill-opacity="1"><g transform="translate(210.932856, 322.070837)"><g/></g></g><g fill="#000000" fill-opacity="1"><g transform="translate(217.172861, 322.070837)"><g><path d="M 3.03125 -2.8125 L 0.234375 -7.734375 L 2.921875 -7.734375 L 4.3125 -5.046875 L 5.71875 -7.734375 L 8.40625 -7.734375 L 5.609375 -2.8125 L 5.609375 0 L 3.03125 0 Z M 3.03125 -2.8125 "/></g></g></g><g fill="#000000" fill-opacity="1"><g transform="translate(228.212873, 322.070837)"><g><path d="M 3.203125 -7.734375 L 5.90625 -7.734375 L 8.875 0 L 6.1875 0 L 5.59375 -1.53125 L 3.515625 -1.53125 L 2.921875 0 L 0.234375 0 Z M 5.28125 -3.34375 L 4.546875 -5.203125 L 3.828125 -3.34375 Z M 5.28125 -3.34375 "/></g></g></g><g fill="#000000" fill-opacity="1"><g transform="translate(239.732884, 322.070837)"><g><path d="M 0.484375 -7.734375 L 4.65625 -7.734375 C 5.59375 -7.734375 6.300781 -7.472656 6.78125 -6.953125 C 7.257812 -6.441406 7.5 -5.757812 7.5 -4.90625 C 7.5 -4.40625 7.375 -3.957031 7.125 -3.5625 C 6.875 -3.164062 6.535156 -2.84375 6.109375 -2.59375 C 6.265625 -2.46875 6.390625 -2.289062 6.484375 -2.0625 L 7.390625 0 L 4.703125 0 L 3.90625 -1.78125 C 3.851562 -1.90625 3.789062 -1.988281 3.71875 -2.03125 C 3.65625 -2.082031 3.5625 -2.109375 3.4375 -2.109375 L 3.0625 -2.109375 L 3.0625 0 L 0.484375 0 Z M 4.015625 -4.109375 C 4.285156 -4.109375 4.492188 -4.175781 4.640625 -4.3125 C 4.796875 -4.445312 4.875 -4.644531 4.875 -4.90625 C 4.875 -5.445312 4.601562 -5.71875 4.0625 -5.71875 L 3.0625 -5.71875 L 3.0625 -4.109375 Z M 4.015625 -4.109375 "/></g></g></g><g fill="#000000" fill-opacity="1"><g transform="translate(249.872898, 322.070837)"><g><path d="M 0.484375 -7.734375 L 3.0625 -7.734375 L 3.0625 0 L 0.484375 0 Z M 0.484375 -7.734375 "/></g></g></g><g fill="#000000" fill-opacity="1"><g transform="translate(255.812907, 322.070837)"><g><path d="M 6.4375 -2.265625 C 6.4375 -1.609375 6.210938 -1.070312 5.765625 -0.65625 C 5.316406 -0.25 4.660156 -0.00390625 3.796875 0.078125 L 3.65625 0.46875 C 4.082031 0.46875 4.410156 0.570312 4.640625 0.78125 C 4.867188 1 4.984375 1.273438 4.984375 1.609375 C 4.984375 2.003906 4.8125 2.3125 4.46875 2.53125 C 4.132812 2.757812 3.640625 2.875 2.984375 2.875 C 2.835938 2.875 2.648438 2.863281 2.421875 2.84375 C 2.203125 2.820312 2.050781 2.800781 1.96875 2.78125 L 1.96875 1.890625 C 2.195312 1.953125 2.429688 1.984375 2.671875 1.984375 C 2.953125 1.984375 3.160156 1.945312 3.296875 1.875 C 3.429688 1.8125 3.5 1.707031 3.5 1.5625 C 3.5 1.425781 3.453125 1.332031 3.359375 1.28125 C 3.273438 1.238281 3.144531 1.21875 2.96875 1.21875 L 2.140625 1.21875 L 2.453125 0.09375 C 1.585938 0.0507812 0.878906 -0.109375 0.328125 -0.390625 L 0.328125 -2.40625 C 0.703125 -2.226562 1.113281 -2.082031 1.5625 -1.96875 C 2.019531 -1.851562 2.4375 -1.796875 2.8125 -1.796875 C 3.144531 -1.796875 3.390625 -1.828125 3.546875 -1.890625 C 3.710938 -1.960938 3.796875 -2.082031 3.796875 -2.25 C 3.796875 -2.40625 3.71875 -2.523438 3.5625 -2.609375 C 3.414062 -2.691406 3.132812 -2.800781 2.71875 -2.9375 C 2.601562 -2.96875 2.453125 -3.015625 2.265625 -3.078125 C 1.742188 -3.253906 1.335938 -3.441406 1.046875 -3.640625 C 0.765625 -3.847656 0.554688 -4.097656 0.421875 -4.390625 C 0.296875 -4.679688 0.234375 -5.039062 0.234375 -5.46875 C 0.234375 -7.050781 1.335938 -7.84375 3.546875 -7.84375 C 3.929688 -7.84375 4.359375 -7.804688 4.828125 -7.734375 C 5.304688 -7.660156 5.707031 -7.578125 6.03125 -7.484375 L 6.03125 -5.453125 C 5.28125 -5.753906 4.59375 -5.90625 3.96875 -5.90625 C 3.625 -5.90625 3.351562 -5.875 3.15625 -5.8125 C 2.96875 -5.757812 2.875 -5.65625 2.875 -5.5 C 2.875 -5.394531 2.914062 -5.304688 3 -5.234375 C 3.082031 -5.171875 3.203125 -5.113281 3.359375 -5.0625 C 3.515625 -5.019531 3.785156 -4.945312 4.171875 -4.84375 C 4.785156 -4.675781 5.253906 -4.472656 5.578125 -4.234375 C 5.910156 -3.992188 6.132812 -3.71875 6.25 -3.40625 C 6.375 -3.09375 6.4375 -2.710938 6.4375 -2.265625 Z M 6.4375 -2.265625 "/></g></g></g><g fill="#000000" fill-opacity="1"><g transform="translate(264.896918, 322.070837)"><g><path d="M 0.484375 -7.734375 L 2.953125 -7.734375 L 4.703125 -4.15625 L 6.4375 -7.734375 L 8.90625 -7.734375 L 8.90625 0 L 6.328125 0 L 6.328125 -3.28125 L 5.359375 -1.3125 L 4.015625 -1.3125 L 3.0625 -3.28125 L 3.0625 0 L 0.484375 0 Z M 0.484375 -7.734375 "/></g></g></g><g fill="#000000" fill-opacity="1"><g transform="translate(276.680933, 322.070837)"><g><path d="M 3.203125 -7.734375 L 5.90625 -7.734375 L 8.875 0 L 6.1875 0 L 5.59375 -1.53125 L 3.515625 -1.53125 L 2.921875 0 L 0.234375 0 Z M 5.28125 -3.34375 L 4.546875 -5.203125 L 3.828125 -3.34375 Z M 5.28125 -3.34375 "/></g></g></g><g fill="#000000" fill-opacity="1"><g transform="translate(288.200944, 322.070837)"><g><path d="M 3.078125 0.125 C 2.546875 0.125 2.035156 0.0820312 1.546875 0 C 1.066406 -0.09375 0.660156 -0.222656 0.328125 -0.390625 L 0.328125 -2.40625 C 0.703125 -2.226562 1.113281 -2.082031 1.5625 -1.96875 C 2.019531 -1.851562 2.4375 -1.796875 2.8125 -1.796875 C 3.144531 -1.796875 3.390625 -1.828125 3.546875 -1.890625 C 3.710938 -1.960938 3.796875 -2.082031 3.796875 -2.25 C 3.796875 -2.40625 3.71875 -2.523438 3.5625 -2.609375 C 3.414062 -2.691406 3.132812 -2.800781 2.71875 -2.9375 C 2.601562 -2.96875 2.453125 -3.015625 2.265625 -3.078125 C 1.742188 -3.253906 1.335938 -3.441406 1.046875 -3.640625 C 0.765625 -3.847656 0.554688 -4.097656 0.421875 -4.390625 C 0.296875 -4.679688 0.234375 -5.039062 0.234375 -5.46875 C 0.234375 -7.050781 1.335938 -7.84375 3.546875 -7.84375 C 3.929688 -7.84375 4.359375 -7.804688 4.828125 -7.734375 C 5.304688 -7.660156 5.707031 -7.578125 6.03125 -7.484375 L 6.03125 -5.453125 C 5.28125 -5.753906 4.59375 -5.90625 3.96875 -5.90625 C 3.625 -5.90625 3.351562 -5.875 3.15625 -5.8125 C 2.96875 -5.757812 2.875 -5.65625 2.875 -5.5 C 2.875 -5.394531 2.914062 -5.304688 3 -5.234375 C 3.082031 -5.171875 3.203125 -5.113281 3.359375 -5.0625 C 3.515625 -5.019531 3.785156 -4.945312 4.171875 -4.84375 C 4.785156 -4.675781 5.253906 -4.472656 5.578125 -4.234375 C 5.910156 -3.992188 6.132812 -3.71875 6.25 -3.40625 C 6.375 -3.09375 6.4375 -2.710938 6.4375 -2.265625 C 6.4375 -1.523438 6.148438 -0.941406 5.578125 -0.515625 C 5.015625 -0.0859375 4.179688 0.125 3.078125 0.125 Z M 3.078125 0.125 "/></g></g></g><g fill="#000000" fill-opacity="1"><g transform="translate(297.284966, 322.070837)"><g><path d="M 0.484375 -7.734375 L 3.0625 -7.734375 L 3.0625 0 L 0.484375 0 Z M 0.484375 -7.734375 "/></g></g></g></svg>